G04 #@! TF.GenerationSoftware,KiCad,Pcbnew,5.1.6-c6e7f7d~86~ubuntu20.04.1*
G04 #@! TF.CreationDate,2020-05-29T14:13:17+02:00*
G04 #@! TF.ProjectId,atari-usb,61746172-692d-4757-9362-2e6b69636164,rev?*
G04 #@! TF.SameCoordinates,Original*
G04 #@! TF.FileFunction,Legend,Top*
G04 #@! TF.FilePolarity,Positive*
%FSLAX46Y46*%
G04 Gerber Fmt 4.6, Leading zero omitted, Abs format (unit mm)*
G04 Created by KiCad (PCBNEW 5.1.6-c6e7f7d~86~ubuntu20.04.1) date 2020-05-29 14:13:17*
%MOMM*%
%LPD*%
G01*
G04 APERTURE LIST*
%ADD10C,0.150000*%
%ADD11C,0.120000*%
%ADD12C,0.100000*%
G04 APERTURE END LIST*
D10*
X142751142Y-83883571D02*
X141951142Y-83883571D01*
X142751142Y-83369285D02*
X142122571Y-83369285D01*
X142008285Y-83426428D01*
X141951142Y-83540714D01*
X141951142Y-83712142D01*
X142008285Y-83826428D01*
X142065428Y-83883571D01*
X142751142Y-84455000D02*
X141551142Y-84455000D01*
X142694000Y-84455000D02*
X142751142Y-84569285D01*
X142751142Y-84797857D01*
X142694000Y-84912142D01*
X142636857Y-84969285D01*
X142522571Y-85026428D01*
X142179714Y-85026428D01*
X142065428Y-84969285D01*
X142008285Y-84912142D01*
X141951142Y-84797857D01*
X141951142Y-84569285D01*
X142008285Y-84455000D01*
X142065428Y-85540714D02*
X142008285Y-85597857D01*
X141951142Y-85540714D01*
X142008285Y-85483571D01*
X142065428Y-85540714D01*
X141951142Y-85540714D01*
X142408285Y-85540714D02*
X143094000Y-85483571D01*
X143151142Y-85540714D01*
X143094000Y-85597857D01*
X142408285Y-85540714D01*
X143151142Y-85540714D01*
D11*
X141421382Y-80645000D02*
G75*
G03*
X141421382Y-80645000I-1086382J0D01*
G01*
X135255000Y-80010000D02*
X135255000Y-83185000D01*
X137795000Y-80010000D02*
X135255000Y-80010000D01*
X137795000Y-83185000D02*
X137795000Y-80010000D01*
X140970000Y-83185000D02*
X137795000Y-83185000D01*
X140970000Y-85725000D02*
X140970000Y-83185000D01*
X137795000Y-85725000D02*
X140970000Y-85725000D01*
X137795000Y-88900000D02*
X137795000Y-85725000D01*
X135255000Y-88900000D02*
X137795000Y-88900000D01*
X135255000Y-85725000D02*
X135255000Y-88900000D01*
X132080000Y-85725000D02*
X135255000Y-85725000D01*
X132080000Y-83185000D02*
X132080000Y-85725000D01*
X135255000Y-83185000D02*
X132080000Y-83185000D01*
X142051000Y-92075000D02*
G75*
G03*
X142051000Y-92075000I-700000J0D01*
G01*
X145099000Y-90297000D02*
G75*
G03*
X145099000Y-90297000I-700000J0D01*
G01*
X143067000Y-90297000D02*
G75*
G03*
X143067000Y-90297000I-700000J0D01*
G01*
X144083000Y-92075000D02*
G75*
G03*
X144083000Y-92075000I-700000J0D01*
G01*
X141135000Y-79910000D02*
X138850000Y-79910000D01*
X138850000Y-79910000D02*
X138850000Y-81380000D01*
X138850000Y-81380000D02*
X141135000Y-81380000D01*
X134632500Y-83720000D02*
X132347500Y-83720000D01*
X132347500Y-83720000D02*
X132347500Y-85190000D01*
X132347500Y-85190000D02*
X134632500Y-85190000D01*
X139865000Y-83720000D02*
X137580000Y-83720000D01*
X137580000Y-83720000D02*
X137580000Y-85190000D01*
X137580000Y-85190000D02*
X139865000Y-85190000D01*
X135790000Y-86195000D02*
X135790000Y-88480000D01*
X135790000Y-88480000D02*
X137260000Y-88480000D01*
X137260000Y-88480000D02*
X137260000Y-86195000D01*
X135790000Y-81115000D02*
X135790000Y-83400000D01*
X135790000Y-83400000D02*
X137260000Y-83400000D01*
X137260000Y-83400000D02*
X137260000Y-81115000D01*
X140718000Y-77180221D02*
X140718000Y-77505779D01*
X139698000Y-77180221D02*
X139698000Y-77505779D01*
X131570000Y-91602779D02*
X131570000Y-91277221D01*
X132590000Y-91602779D02*
X132590000Y-91277221D01*
X142242000Y-77180221D02*
X142242000Y-77505779D01*
X141222000Y-77180221D02*
X141222000Y-77505779D01*
X137543000Y-77180221D02*
X137543000Y-77505779D01*
X136523000Y-77180221D02*
X136523000Y-77505779D01*
X136019000Y-77180221D02*
X136019000Y-77505779D01*
X134999000Y-77180221D02*
X134999000Y-77505779D01*
X127599221Y-78484000D02*
X127924779Y-78484000D01*
X127599221Y-79504000D02*
X127924779Y-79504000D01*
X127599221Y-81278000D02*
X127924779Y-81278000D01*
X127599221Y-82298000D02*
X127924779Y-82298000D01*
X127599221Y-83945000D02*
X127924779Y-83945000D01*
X127599221Y-84965000D02*
X127924779Y-84965000D01*
X127599221Y-86612000D02*
X127924779Y-86612000D01*
X127599221Y-87632000D02*
X127924779Y-87632000D01*
X127599221Y-89406000D02*
X127924779Y-89406000D01*
X127599221Y-90426000D02*
X127924779Y-90426000D01*
D12*
X136025000Y-92940000D02*
X136525000Y-92940000D01*
X136525000Y-92940000D02*
X137025000Y-92940000D01*
X136525000Y-89940000D02*
X137025000Y-89940000D01*
X136525000Y-89940000D02*
X136025000Y-89940000D01*
D11*
X144705000Y-78031078D02*
X144705000Y-77513922D01*
X146125000Y-78031078D02*
X146125000Y-77513922D01*
X139956000Y-91277221D02*
X139956000Y-91602779D01*
X138936000Y-91277221D02*
X138936000Y-91602779D01*
X134114000Y-91277221D02*
X134114000Y-91602779D01*
X133094000Y-91277221D02*
X133094000Y-91602779D01*
X148190000Y-80055000D02*
X148190000Y-88855000D01*
X151360000Y-78310000D02*
X152410000Y-78310000D01*
X151360000Y-90600000D02*
X152410000Y-90600000D01*
M02*
