G04 #@! TF.GenerationSoftware,KiCad,Pcbnew,5.1.6-c6e7f7d~86~ubuntu20.04.1*
G04 #@! TF.CreationDate,2020-05-29T14:13:17+02:00*
G04 #@! TF.ProjectId,atari-usb,61746172-692d-4757-9362-2e6b69636164,rev?*
G04 #@! TF.SameCoordinates,Original*
G04 #@! TF.FileFunction,Copper,L4,Bot*
G04 #@! TF.FilePolarity,Positive*
%FSLAX46Y46*%
G04 Gerber Fmt 4.6, Leading zero omitted, Abs format (unit mm)*
G04 Created by KiCad (PCBNEW 5.1.6-c6e7f7d~86~ubuntu20.04.1) date 2020-05-29 14:13:17*
%MOMM*%
%LPD*%
G01*
G04 APERTURE LIST*
G04 #@! TA.AperFunction,SMDPad,CuDef*
%ADD10R,0.900000X0.800000*%
G04 #@! TD*
G04 #@! TA.AperFunction,SMDPad,CuDef*
%ADD11R,0.550000X1.500000*%
G04 #@! TD*
G04 #@! TA.AperFunction,SMDPad,CuDef*
%ADD12R,1.500000X0.550000*%
G04 #@! TD*
G04 #@! TA.AperFunction,ComponentPad*
%ADD13O,3.500000X1.900000*%
G04 #@! TD*
G04 #@! TA.AperFunction,ViaPad*
%ADD14C,0.800000*%
G04 #@! TD*
G04 #@! TA.AperFunction,Conductor*
%ADD15C,0.250000*%
G04 #@! TD*
G04 APERTURE END LIST*
G04 #@! TA.AperFunction,SMDPad,CuDef*
G36*
G01*
X145217500Y-80007750D02*
X145217500Y-80520250D01*
G75*
G02*
X144998750Y-80739000I-218750J0D01*
G01*
X144561250Y-80739000D01*
G75*
G02*
X144342500Y-80520250I0J218750D01*
G01*
X144342500Y-80007750D01*
G75*
G02*
X144561250Y-79789000I218750J0D01*
G01*
X144998750Y-79789000D01*
G75*
G02*
X145217500Y-80007750I0J-218750D01*
G01*
G37*
G04 #@! TD.AperFunction*
G04 #@! TA.AperFunction,SMDPad,CuDef*
G36*
G01*
X146792500Y-80007750D02*
X146792500Y-80520250D01*
G75*
G02*
X146573750Y-80739000I-218750J0D01*
G01*
X146136250Y-80739000D01*
G75*
G02*
X145917500Y-80520250I0J218750D01*
G01*
X145917500Y-80007750D01*
G75*
G02*
X146136250Y-79789000I218750J0D01*
G01*
X146573750Y-79789000D01*
G75*
G02*
X146792500Y-80007750I0J-218750D01*
G01*
G37*
G04 #@! TD.AperFunction*
G04 #@! TA.AperFunction,SMDPad,CuDef*
G36*
G01*
X140050000Y-77091250D02*
X140050000Y-76578750D01*
G75*
G02*
X140268750Y-76360000I218750J0D01*
G01*
X140706250Y-76360000D01*
G75*
G02*
X140925000Y-76578750I0J-218750D01*
G01*
X140925000Y-77091250D01*
G75*
G02*
X140706250Y-77310000I-218750J0D01*
G01*
X140268750Y-77310000D01*
G75*
G02*
X140050000Y-77091250I0J218750D01*
G01*
G37*
G04 #@! TD.AperFunction*
G04 #@! TA.AperFunction,SMDPad,CuDef*
G36*
G01*
X138475000Y-77091250D02*
X138475000Y-76578750D01*
G75*
G02*
X138693750Y-76360000I218750J0D01*
G01*
X139131250Y-76360000D01*
G75*
G02*
X139350000Y-76578750I0J-218750D01*
G01*
X139350000Y-77091250D01*
G75*
G02*
X139131250Y-77310000I-218750J0D01*
G01*
X138693750Y-77310000D01*
G75*
G02*
X138475000Y-77091250I0J218750D01*
G01*
G37*
G04 #@! TD.AperFunction*
G04 #@! TA.AperFunction,SMDPad,CuDef*
G36*
G01*
X138907000Y-92331250D02*
X138907000Y-91818750D01*
G75*
G02*
X139125750Y-91600000I218750J0D01*
G01*
X139563250Y-91600000D01*
G75*
G02*
X139782000Y-91818750I0J-218750D01*
G01*
X139782000Y-92331250D01*
G75*
G02*
X139563250Y-92550000I-218750J0D01*
G01*
X139125750Y-92550000D01*
G75*
G02*
X138907000Y-92331250I0J218750D01*
G01*
G37*
G04 #@! TD.AperFunction*
G04 #@! TA.AperFunction,SMDPad,CuDef*
G36*
G01*
X137332000Y-92331250D02*
X137332000Y-91818750D01*
G75*
G02*
X137550750Y-91600000I218750J0D01*
G01*
X137988250Y-91600000D01*
G75*
G02*
X138207000Y-91818750I0J-218750D01*
G01*
X138207000Y-92331250D01*
G75*
G02*
X137988250Y-92550000I-218750J0D01*
G01*
X137550750Y-92550000D01*
G75*
G02*
X137332000Y-92331250I0J218750D01*
G01*
G37*
G04 #@! TD.AperFunction*
G04 #@! TA.AperFunction,SMDPad,CuDef*
G36*
G01*
X132049000Y-76964250D02*
X132049000Y-76451750D01*
G75*
G02*
X132267750Y-76233000I218750J0D01*
G01*
X132705250Y-76233000D01*
G75*
G02*
X132924000Y-76451750I0J-218750D01*
G01*
X132924000Y-76964250D01*
G75*
G02*
X132705250Y-77183000I-218750J0D01*
G01*
X132267750Y-77183000D01*
G75*
G02*
X132049000Y-76964250I0J218750D01*
G01*
G37*
G04 #@! TD.AperFunction*
G04 #@! TA.AperFunction,SMDPad,CuDef*
G36*
G01*
X130474000Y-76964250D02*
X130474000Y-76451750D01*
G75*
G02*
X130692750Y-76233000I218750J0D01*
G01*
X131130250Y-76233000D01*
G75*
G02*
X131349000Y-76451750I0J-218750D01*
G01*
X131349000Y-76964250D01*
G75*
G02*
X131130250Y-77183000I-218750J0D01*
G01*
X130692750Y-77183000D01*
G75*
G02*
X130474000Y-76964250I0J218750D01*
G01*
G37*
G04 #@! TD.AperFunction*
G04 #@! TA.AperFunction,SMDPad,CuDef*
G36*
G01*
X131160000Y-92331250D02*
X131160000Y-91818750D01*
G75*
G02*
X131378750Y-91600000I218750J0D01*
G01*
X131816250Y-91600000D01*
G75*
G02*
X132035000Y-91818750I0J-218750D01*
G01*
X132035000Y-92331250D01*
G75*
G02*
X131816250Y-92550000I-218750J0D01*
G01*
X131378750Y-92550000D01*
G75*
G02*
X131160000Y-92331250I0J218750D01*
G01*
G37*
G04 #@! TD.AperFunction*
G04 #@! TA.AperFunction,SMDPad,CuDef*
G36*
G01*
X129585000Y-92331250D02*
X129585000Y-91818750D01*
G75*
G02*
X129803750Y-91600000I218750J0D01*
G01*
X130241250Y-91600000D01*
G75*
G02*
X130460000Y-91818750I0J-218750D01*
G01*
X130460000Y-92331250D01*
G75*
G02*
X130241250Y-92550000I-218750J0D01*
G01*
X129803750Y-92550000D01*
G75*
G02*
X129585000Y-92331250I0J218750D01*
G01*
G37*
G04 #@! TD.AperFunction*
G04 #@! TA.AperFunction,SMDPad,CuDef*
G36*
G01*
X145217500Y-88389750D02*
X145217500Y-88902250D01*
G75*
G02*
X144998750Y-89121000I-218750J0D01*
G01*
X144561250Y-89121000D01*
G75*
G02*
X144342500Y-88902250I0J218750D01*
G01*
X144342500Y-88389750D01*
G75*
G02*
X144561250Y-88171000I218750J0D01*
G01*
X144998750Y-88171000D01*
G75*
G02*
X145217500Y-88389750I0J-218750D01*
G01*
G37*
G04 #@! TD.AperFunction*
G04 #@! TA.AperFunction,SMDPad,CuDef*
G36*
G01*
X146792500Y-88389750D02*
X146792500Y-88902250D01*
G75*
G02*
X146573750Y-89121000I-218750J0D01*
G01*
X146136250Y-89121000D01*
G75*
G02*
X145917500Y-88902250I0J218750D01*
G01*
X145917500Y-88389750D01*
G75*
G02*
X146136250Y-88171000I218750J0D01*
G01*
X146573750Y-88171000D01*
G75*
G02*
X146792500Y-88389750I0J-218750D01*
G01*
G37*
G04 #@! TD.AperFunction*
G04 #@! TA.AperFunction,SMDPad,CuDef*
G36*
G01*
X128112000Y-80647250D02*
X128112000Y-80134750D01*
G75*
G02*
X128330750Y-79916000I218750J0D01*
G01*
X128768250Y-79916000D01*
G75*
G02*
X128987000Y-80134750I0J-218750D01*
G01*
X128987000Y-80647250D01*
G75*
G02*
X128768250Y-80866000I-218750J0D01*
G01*
X128330750Y-80866000D01*
G75*
G02*
X128112000Y-80647250I0J218750D01*
G01*
G37*
G04 #@! TD.AperFunction*
G04 #@! TA.AperFunction,SMDPad,CuDef*
G36*
G01*
X126537000Y-80647250D02*
X126537000Y-80134750D01*
G75*
G02*
X126755750Y-79916000I218750J0D01*
G01*
X127193250Y-79916000D01*
G75*
G02*
X127412000Y-80134750I0J-218750D01*
G01*
X127412000Y-80647250D01*
G75*
G02*
X127193250Y-80866000I-218750J0D01*
G01*
X126755750Y-80866000D01*
G75*
G02*
X126537000Y-80647250I0J218750D01*
G01*
G37*
G04 #@! TD.AperFunction*
G04 #@! TA.AperFunction,SMDPad,CuDef*
G36*
G01*
X128112000Y-88775250D02*
X128112000Y-88262750D01*
G75*
G02*
X128330750Y-88044000I218750J0D01*
G01*
X128768250Y-88044000D01*
G75*
G02*
X128987000Y-88262750I0J-218750D01*
G01*
X128987000Y-88775250D01*
G75*
G02*
X128768250Y-88994000I-218750J0D01*
G01*
X128330750Y-88994000D01*
G75*
G02*
X128112000Y-88775250I0J218750D01*
G01*
G37*
G04 #@! TD.AperFunction*
G04 #@! TA.AperFunction,SMDPad,CuDef*
G36*
G01*
X126537000Y-88775250D02*
X126537000Y-88262750D01*
G75*
G02*
X126755750Y-88044000I218750J0D01*
G01*
X127193250Y-88044000D01*
G75*
G02*
X127412000Y-88262750I0J-218750D01*
G01*
X127412000Y-88775250D01*
G75*
G02*
X127193250Y-88994000I-218750J0D01*
G01*
X126755750Y-88994000D01*
G75*
G02*
X126537000Y-88775250I0J218750D01*
G01*
G37*
G04 #@! TD.AperFunction*
D10*
X147050000Y-84455000D03*
X145050000Y-83505000D03*
X145050000Y-85405000D03*
G04 #@! TA.AperFunction,SMDPad,CuDef*
G36*
G01*
X141255000Y-91818750D02*
X141255000Y-92331250D01*
G75*
G02*
X141036250Y-92550000I-218750J0D01*
G01*
X140598750Y-92550000D01*
G75*
G02*
X140380000Y-92331250I0J218750D01*
G01*
X140380000Y-91818750D01*
G75*
G02*
X140598750Y-91600000I218750J0D01*
G01*
X141036250Y-91600000D01*
G75*
G02*
X141255000Y-91818750I0J-218750D01*
G01*
G37*
G04 #@! TD.AperFunction*
G04 #@! TA.AperFunction,SMDPad,CuDef*
G36*
G01*
X142830000Y-91818750D02*
X142830000Y-92331250D01*
G75*
G02*
X142611250Y-92550000I-218750J0D01*
G01*
X142173750Y-92550000D01*
G75*
G02*
X141955000Y-92331250I0J218750D01*
G01*
X141955000Y-91818750D01*
G75*
G02*
X142173750Y-91600000I218750J0D01*
G01*
X142611250Y-91600000D01*
G75*
G02*
X142830000Y-91818750I0J-218750D01*
G01*
G37*
G04 #@! TD.AperFunction*
G04 #@! TA.AperFunction,SMDPad,CuDef*
G36*
G01*
X145917500Y-82171250D02*
X145917500Y-81658750D01*
G75*
G02*
X146136250Y-81440000I218750J0D01*
G01*
X146573750Y-81440000D01*
G75*
G02*
X146792500Y-81658750I0J-218750D01*
G01*
X146792500Y-82171250D01*
G75*
G02*
X146573750Y-82390000I-218750J0D01*
G01*
X146136250Y-82390000D01*
G75*
G02*
X145917500Y-82171250I0J218750D01*
G01*
G37*
G04 #@! TD.AperFunction*
G04 #@! TA.AperFunction,SMDPad,CuDef*
G36*
G01*
X144342500Y-82171250D02*
X144342500Y-81658750D01*
G75*
G02*
X144561250Y-81440000I218750J0D01*
G01*
X144998750Y-81440000D01*
G75*
G02*
X145217500Y-81658750I0J-218750D01*
G01*
X145217500Y-82171250D01*
G75*
G02*
X144998750Y-82390000I-218750J0D01*
G01*
X144561250Y-82390000D01*
G75*
G02*
X144342500Y-82171250I0J218750D01*
G01*
G37*
G04 #@! TD.AperFunction*
G04 #@! TA.AperFunction,SMDPad,CuDef*
G36*
G01*
X145917500Y-87251250D02*
X145917500Y-86738750D01*
G75*
G02*
X146136250Y-86520000I218750J0D01*
G01*
X146573750Y-86520000D01*
G75*
G02*
X146792500Y-86738750I0J-218750D01*
G01*
X146792500Y-87251250D01*
G75*
G02*
X146573750Y-87470000I-218750J0D01*
G01*
X146136250Y-87470000D01*
G75*
G02*
X145917500Y-87251250I0J218750D01*
G01*
G37*
G04 #@! TD.AperFunction*
G04 #@! TA.AperFunction,SMDPad,CuDef*
G36*
G01*
X144342500Y-87251250D02*
X144342500Y-86738750D01*
G75*
G02*
X144561250Y-86520000I218750J0D01*
G01*
X144998750Y-86520000D01*
G75*
G02*
X145217500Y-86738750I0J-218750D01*
G01*
X145217500Y-87251250D01*
G75*
G02*
X144998750Y-87470000I-218750J0D01*
G01*
X144561250Y-87470000D01*
G75*
G02*
X144342500Y-87251250I0J218750D01*
G01*
G37*
G04 #@! TD.AperFunction*
G04 #@! TA.AperFunction,SMDPad,CuDef*
G36*
G01*
X122182000Y-87565000D02*
X125658000Y-87565000D01*
G75*
G02*
X125920000Y-87827000I0J-262000D01*
G01*
X125920000Y-89303000D01*
G75*
G02*
X125658000Y-89565000I-262000J0D01*
G01*
X122182000Y-89565000D01*
G75*
G02*
X121920000Y-89303000I0J262000D01*
G01*
X121920000Y-87827000D01*
G75*
G02*
X122182000Y-87565000I262000J0D01*
G01*
G37*
G04 #@! TD.AperFunction*
G04 #@! TA.AperFunction,SMDPad,CuDef*
G36*
G01*
X122182000Y-84825000D02*
X125658000Y-84825000D01*
G75*
G02*
X125920000Y-85087000I0J-262000D01*
G01*
X125920000Y-86563000D01*
G75*
G02*
X125658000Y-86825000I-262000J0D01*
G01*
X122182000Y-86825000D01*
G75*
G02*
X121920000Y-86563000I0J262000D01*
G01*
X121920000Y-85087000D01*
G75*
G02*
X122182000Y-84825000I262000J0D01*
G01*
G37*
G04 #@! TD.AperFunction*
G04 #@! TA.AperFunction,SMDPad,CuDef*
G36*
G01*
X122182000Y-82085000D02*
X125658000Y-82085000D01*
G75*
G02*
X125920000Y-82347000I0J-262000D01*
G01*
X125920000Y-83823000D01*
G75*
G02*
X125658000Y-84085000I-262000J0D01*
G01*
X122182000Y-84085000D01*
G75*
G02*
X121920000Y-83823000I0J262000D01*
G01*
X121920000Y-82347000D01*
G75*
G02*
X122182000Y-82085000I262000J0D01*
G01*
G37*
G04 #@! TD.AperFunction*
G04 #@! TA.AperFunction,SMDPad,CuDef*
G36*
G01*
X122182000Y-79345000D02*
X125658000Y-79345000D01*
G75*
G02*
X125920000Y-79607000I0J-262000D01*
G01*
X125920000Y-81083000D01*
G75*
G02*
X125658000Y-81345000I-262000J0D01*
G01*
X122182000Y-81345000D01*
G75*
G02*
X121920000Y-81083000I0J262000D01*
G01*
X121920000Y-79607000D01*
G75*
G02*
X122182000Y-79345000I262000J0D01*
G01*
G37*
G04 #@! TD.AperFunction*
D11*
X140525000Y-78755000D03*
X139725000Y-78755000D03*
X138925000Y-78755000D03*
X138125000Y-78755000D03*
X137325000Y-78755000D03*
X136525000Y-78755000D03*
X135725000Y-78755000D03*
X134925000Y-78755000D03*
X134125000Y-78755000D03*
X133325000Y-78755000D03*
X132525000Y-78755000D03*
D12*
X130825000Y-80455000D03*
X130825000Y-81255000D03*
X130825000Y-82055000D03*
X130825000Y-82855000D03*
X130825000Y-83655000D03*
X130825000Y-84455000D03*
X130825000Y-85255000D03*
X130825000Y-86055000D03*
X130825000Y-86855000D03*
X130825000Y-87655000D03*
X130825000Y-88455000D03*
D11*
X132525000Y-90155000D03*
X133325000Y-90155000D03*
X134125000Y-90155000D03*
X134925000Y-90155000D03*
X135725000Y-90155000D03*
X136525000Y-90155000D03*
X137325000Y-90155000D03*
X138125000Y-90155000D03*
X138925000Y-90155000D03*
X139725000Y-90155000D03*
X140525000Y-90155000D03*
D12*
X142225000Y-88455000D03*
X142225000Y-87655000D03*
X142225000Y-86855000D03*
X142225000Y-86055000D03*
X142225000Y-85255000D03*
X142225000Y-84455000D03*
X142225000Y-83655000D03*
X142225000Y-82855000D03*
X142225000Y-82055000D03*
X142225000Y-81255000D03*
X142225000Y-80455000D03*
D13*
X149310000Y-90155000D03*
X149310000Y-78755000D03*
D14*
X149225000Y-85090000D03*
X149225000Y-83820000D03*
X148336000Y-84455000D03*
X140462000Y-82550000D03*
X126619000Y-85852000D03*
X128905000Y-92075000D03*
X129794000Y-76708000D03*
X132715012Y-80645000D03*
X139192000Y-82550000D03*
X130810000Y-89916000D03*
X146431000Y-89916000D03*
X149352000Y-80645000D03*
X134620000Y-88646000D03*
X138303000Y-88646000D03*
X126619000Y-83185000D03*
X133604000Y-76708000D03*
X144018000Y-76835000D03*
X143129000Y-76835000D03*
X144780000Y-92075000D03*
X130556000Y-90932000D03*
X143891000Y-79375000D03*
X140589000Y-88519000D03*
X134747000Y-80645000D03*
X129540000Y-89916000D03*
X129474998Y-88519000D03*
X133735653Y-80649653D03*
X127762000Y-85852000D03*
X128905000Y-85852000D03*
X128905000Y-83185000D03*
X128524000Y-77851000D03*
X132461000Y-82677000D03*
X134747000Y-86233000D03*
X139207997Y-86868012D03*
X132461000Y-86233000D03*
X143383000Y-89281000D03*
X140308961Y-86882423D03*
X143637000Y-88138000D03*
X138430000Y-80645000D03*
D15*
X151310000Y-90155000D02*
X149310000Y-90155000D01*
X151511000Y-89954000D02*
X151310000Y-90155000D01*
X151511000Y-78956000D02*
X151511000Y-89954000D01*
X151310000Y-78755000D02*
X151511000Y-78956000D01*
X149310000Y-78755000D02*
X151310000Y-78755000D01*
X148910000Y-85405000D02*
X149225000Y-85090000D01*
X145050000Y-85405000D02*
X148910000Y-85405000D01*
X146355000Y-86710000D02*
X145050000Y-85405000D01*
X146355000Y-86995000D02*
X146355000Y-86710000D01*
X148910000Y-83505000D02*
X149225000Y-83820000D01*
X145050000Y-83505000D02*
X148910000Y-83505000D01*
X146355000Y-82200000D02*
X145050000Y-83505000D01*
X146355000Y-81915000D02*
X146355000Y-82200000D01*
X138125000Y-91110000D02*
X138125000Y-90155000D01*
X137769500Y-92075000D02*
X137769500Y-91465500D01*
X137769500Y-91465500D02*
X138125000Y-91110000D01*
X139725000Y-77755000D02*
X139725000Y-78755000D01*
X139725000Y-77622000D02*
X139725000Y-77755000D01*
X138912500Y-76835000D02*
X138938000Y-76835000D01*
X138938000Y-76835000D02*
X139725000Y-77622000D01*
X147050000Y-84455000D02*
X148336000Y-84455000D01*
X140462000Y-83185000D02*
X140462000Y-82550000D01*
X142225000Y-83655000D02*
X140932000Y-83655000D01*
X140932000Y-83655000D02*
X140462000Y-83185000D01*
X123947000Y-85852000D02*
X126619000Y-85852000D01*
X123920000Y-85825000D02*
X123947000Y-85852000D01*
X130022500Y-92075000D02*
X128905000Y-92075000D01*
X130911500Y-76708000D02*
X129794000Y-76708000D01*
X132715012Y-80644988D02*
X132715012Y-80645000D01*
X133325000Y-80035000D02*
X132715012Y-80644988D01*
X133325000Y-78755000D02*
X133325000Y-80035000D01*
X139725000Y-82017000D02*
X139192000Y-82550000D01*
X139725000Y-78755000D02*
X139725000Y-82017000D01*
X130825000Y-89901000D02*
X130810000Y-89916000D01*
X130825000Y-88455000D02*
X130825000Y-89901000D01*
X146355000Y-88646000D02*
X146355000Y-89840000D01*
X146355000Y-89840000D02*
X146431000Y-89916000D01*
X148209000Y-80645000D02*
X149352000Y-80645000D01*
X147828000Y-80264000D02*
X148209000Y-80645000D01*
X146355000Y-80264000D02*
X147828000Y-80264000D01*
X130022500Y-92109250D02*
X130022500Y-92075000D01*
X130788260Y-92875010D02*
X130022500Y-92109250D01*
X135978990Y-92875010D02*
X130788260Y-92875010D01*
X136779000Y-92075000D02*
X135978990Y-92875010D01*
X137769500Y-92075000D02*
X136779000Y-92075000D01*
X136525000Y-89155000D02*
X136525000Y-90155000D01*
X134620000Y-88646000D02*
X136016000Y-88646000D01*
X136016000Y-88646000D02*
X136525000Y-89155000D01*
X137325000Y-89155000D02*
X137325000Y-90155000D01*
X137325000Y-89058316D02*
X137325000Y-89155000D01*
X138303000Y-88646000D02*
X137737316Y-88646000D01*
X137737316Y-88646000D02*
X137325000Y-89058316D01*
X138925000Y-91046000D02*
X138925000Y-90155000D01*
X139344500Y-92075000D02*
X139344500Y-91465500D01*
X139344500Y-91465500D02*
X138925000Y-91046000D01*
X140525000Y-76872500D02*
X140487500Y-76835000D01*
X140525000Y-78755000D02*
X140525000Y-76872500D01*
X123539000Y-83085000D02*
X123639000Y-83185000D01*
X126619000Y-83185000D02*
X124020000Y-83185000D01*
X124020000Y-83185000D02*
X123920000Y-83085000D01*
X142468500Y-92202000D02*
X142494000Y-92227500D01*
X132525000Y-76746500D02*
X132486500Y-76708000D01*
X132525000Y-78755000D02*
X132525000Y-76746500D01*
X132486500Y-76708000D02*
X133604000Y-76708000D01*
X144018000Y-76835000D02*
X143129000Y-76835000D01*
X140925000Y-76835000D02*
X143129000Y-76835000D01*
X140487500Y-76835000D02*
X140925000Y-76835000D01*
X139065000Y-88011000D02*
X139065000Y-89015000D01*
X138482996Y-87428996D02*
X139065000Y-88011000D01*
X138925000Y-89155000D02*
X138925000Y-90155000D01*
X139065000Y-89015000D02*
X138925000Y-89155000D01*
X138482996Y-86520011D02*
X138482996Y-87428996D01*
X139748007Y-85255000D02*
X138482996Y-86520011D01*
X142225000Y-85255000D02*
X139748007Y-85255000D01*
X142392500Y-92075000D02*
X144780000Y-92075000D01*
X131597500Y-92075000D02*
X131597500Y-91973500D01*
X131597500Y-91973500D02*
X130556000Y-90932000D01*
X131597500Y-89382500D02*
X131597500Y-92075000D01*
X132080000Y-88900000D02*
X131597500Y-89382500D01*
X132080000Y-87884000D02*
X132080000Y-88900000D01*
X131851000Y-87655000D02*
X132080000Y-87884000D01*
X130825000Y-87655000D02*
X131851000Y-87655000D01*
X144780000Y-80264000D02*
X143891000Y-79375000D01*
X143789000Y-81255000D02*
X143225000Y-81255000D01*
X143225000Y-81255000D02*
X142225000Y-81255000D01*
X144780000Y-80264000D02*
X143789000Y-81255000D01*
X139344500Y-92075000D02*
X139344500Y-92735500D01*
X139344500Y-92735500D02*
X139484010Y-92875010D01*
X142392500Y-92550000D02*
X142392500Y-92075000D01*
X139484010Y-92875010D02*
X142067490Y-92875010D01*
X142067490Y-92875010D02*
X142392500Y-92550000D01*
X144018000Y-86233000D02*
X144780000Y-86995000D01*
X144018000Y-83439000D02*
X144018000Y-86233000D01*
X142225000Y-82855000D02*
X143434000Y-82855000D01*
X143434000Y-82855000D02*
X144018000Y-83439000D01*
X144780000Y-81915000D02*
X143891000Y-81915000D01*
X143751000Y-82055000D02*
X143891000Y-81915000D01*
X142225000Y-82055000D02*
X143751000Y-82055000D01*
X139725000Y-88875000D02*
X139725000Y-90155000D01*
X140081000Y-88519000D02*
X139725000Y-88875000D01*
X140589000Y-88519000D02*
X140081000Y-88519000D01*
X139725000Y-91084000D02*
X139725000Y-90155000D01*
X140716000Y-92075000D02*
X139725000Y-91084000D01*
X140817500Y-92075000D02*
X140716000Y-92075000D01*
X126928500Y-88565000D02*
X126974500Y-88519000D01*
X123920000Y-88565000D02*
X126928500Y-88565000D01*
X126928500Y-80345000D02*
X126974500Y-80391000D01*
X123920000Y-80345000D02*
X126928500Y-80345000D01*
X134874000Y-80518000D02*
X134747000Y-80645000D01*
X134874000Y-78806000D02*
X134874000Y-80518000D01*
X134925000Y-78755000D02*
X134874000Y-78806000D01*
X128549500Y-88519000D02*
X129474998Y-88519000D01*
X134125000Y-80260306D02*
X134125000Y-78755000D01*
X133735653Y-80649653D02*
X134125000Y-80260306D01*
X128765000Y-86855000D02*
X130825000Y-86855000D01*
X127762000Y-85852000D02*
X128765000Y-86855000D01*
X129108000Y-86055000D02*
X128905000Y-85852000D01*
X130825000Y-86055000D02*
X129108000Y-86055000D01*
X129235000Y-82855000D02*
X130825000Y-82855000D01*
X128905000Y-83185000D02*
X129235000Y-82855000D01*
X129825000Y-82055000D02*
X130825000Y-82055000D01*
X129172000Y-82055000D02*
X129825000Y-82055000D01*
X128549500Y-81432500D02*
X129172000Y-82055000D01*
X128549500Y-80391000D02*
X128549500Y-81432500D01*
X129540000Y-80970000D02*
X129825000Y-81255000D01*
X129540000Y-78867000D02*
X129540000Y-80970000D01*
X129825000Y-81255000D02*
X130825000Y-81255000D01*
X128524000Y-77851000D02*
X129540000Y-78867000D01*
X131991000Y-83655000D02*
X132461000Y-83185000D01*
X132461000Y-83185000D02*
X132461000Y-82677000D01*
X130825000Y-83655000D02*
X131991000Y-83655000D01*
X132969000Y-84455000D02*
X134747000Y-86233000D01*
X130825000Y-84455000D02*
X132969000Y-84455000D01*
X142225000Y-86055000D02*
X140021009Y-86055000D01*
X140021009Y-86055000D02*
X139207997Y-86868012D01*
X132048685Y-85255000D02*
X131825000Y-85255000D01*
X131825000Y-85255000D02*
X130825000Y-85255000D01*
X132461000Y-85667315D02*
X132048685Y-85255000D01*
X132461000Y-86233000D02*
X132461000Y-85667315D01*
X142225000Y-89012000D02*
X142225000Y-88455000D01*
X142494000Y-89281000D02*
X142225000Y-89012000D01*
X143383000Y-89281000D02*
X142494000Y-89281000D01*
X142225000Y-86855000D02*
X140336384Y-86855000D01*
X140336384Y-86855000D02*
X140308961Y-86882423D01*
X143154000Y-87655000D02*
X142225000Y-87655000D01*
X143637000Y-88138000D02*
X143154000Y-87655000D01*
X143225000Y-84455000D02*
X142225000Y-84455000D01*
X143510000Y-84740000D02*
X143225000Y-84455000D01*
X143510000Y-86968994D02*
X143510000Y-84740000D01*
X144780000Y-88646000D02*
X144780000Y-88238994D01*
X144780000Y-88238994D02*
X143510000Y-86968994D01*
X137415000Y-80645000D02*
X138430000Y-80645000D01*
X136525000Y-79755000D02*
X137415000Y-80645000D01*
X136525000Y-78755000D02*
X136525000Y-79755000D01*
M02*
