G04 #@! TF.GenerationSoftware,KiCad,Pcbnew,5.1.6-c6e7f7d~86~ubuntu20.04.1*
G04 #@! TF.CreationDate,2020-05-29T14:13:17+02:00*
G04 #@! TF.ProjectId,atari-usb,61746172-692d-4757-9362-2e6b69636164,rev?*
G04 #@! TF.SameCoordinates,Original*
G04 #@! TF.FileFunction,Soldermask,Top*
G04 #@! TF.FilePolarity,Negative*
%FSLAX46Y46*%
G04 Gerber Fmt 4.6, Leading zero omitted, Abs format (unit mm)*
G04 Created by KiCad (PCBNEW 5.1.6-c6e7f7d~86~ubuntu20.04.1) date 2020-05-29 14:13:17*
%MOMM*%
%LPD*%
G01*
G04 APERTURE LIST*
%ADD10C,0.100000*%
G04 APERTURE END LIST*
D10*
G36*
X138276000Y-92841000D02*
G01*
X136674000Y-92841000D01*
X136674000Y-90039000D01*
X138276000Y-90039000D01*
X138276000Y-92841000D01*
G37*
G36*
X136376000Y-92841000D02*
G01*
X134774000Y-92841000D01*
X134774000Y-90039000D01*
X136376000Y-90039000D01*
X136376000Y-92841000D01*
G37*
G36*
X133983591Y-91743085D02*
G01*
X134017569Y-91753393D01*
X134048890Y-91770134D01*
X134076339Y-91792661D01*
X134098866Y-91820110D01*
X134115607Y-91851431D01*
X134125915Y-91885409D01*
X134130000Y-91926890D01*
X134130000Y-92528110D01*
X134125915Y-92569591D01*
X134115607Y-92603569D01*
X134098866Y-92634890D01*
X134076339Y-92662339D01*
X134048890Y-92684866D01*
X134017569Y-92701607D01*
X133983591Y-92711915D01*
X133942110Y-92716000D01*
X133265890Y-92716000D01*
X133224409Y-92711915D01*
X133190431Y-92701607D01*
X133159110Y-92684866D01*
X133131661Y-92662339D01*
X133109134Y-92634890D01*
X133092393Y-92603569D01*
X133082085Y-92569591D01*
X133078000Y-92528110D01*
X133078000Y-91926890D01*
X133082085Y-91885409D01*
X133092393Y-91851431D01*
X133109134Y-91820110D01*
X133131661Y-91792661D01*
X133159110Y-91770134D01*
X133190431Y-91753393D01*
X133224409Y-91743085D01*
X133265890Y-91739000D01*
X133942110Y-91739000D01*
X133983591Y-91743085D01*
G37*
G36*
X132459591Y-91743085D02*
G01*
X132493569Y-91753393D01*
X132524890Y-91770134D01*
X132552339Y-91792661D01*
X132574866Y-91820110D01*
X132591607Y-91851431D01*
X132601915Y-91885409D01*
X132606000Y-91926890D01*
X132606000Y-92528110D01*
X132601915Y-92569591D01*
X132591607Y-92603569D01*
X132574866Y-92634890D01*
X132552339Y-92662339D01*
X132524890Y-92684866D01*
X132493569Y-92701607D01*
X132459591Y-92711915D01*
X132418110Y-92716000D01*
X131741890Y-92716000D01*
X131700409Y-92711915D01*
X131666431Y-92701607D01*
X131635110Y-92684866D01*
X131607661Y-92662339D01*
X131585134Y-92634890D01*
X131568393Y-92603569D01*
X131558085Y-92569591D01*
X131554000Y-92528110D01*
X131554000Y-91926890D01*
X131558085Y-91885409D01*
X131568393Y-91851431D01*
X131585134Y-91820110D01*
X131607661Y-91792661D01*
X131635110Y-91770134D01*
X131666431Y-91753393D01*
X131700409Y-91743085D01*
X131741890Y-91739000D01*
X132418110Y-91739000D01*
X132459591Y-91743085D01*
G37*
G36*
X139825591Y-91743085D02*
G01*
X139859569Y-91753393D01*
X139890890Y-91770134D01*
X139918339Y-91792661D01*
X139940866Y-91820110D01*
X139957607Y-91851431D01*
X139967915Y-91885409D01*
X139972000Y-91926890D01*
X139972000Y-92528110D01*
X139967915Y-92569591D01*
X139957607Y-92603569D01*
X139940866Y-92634890D01*
X139918339Y-92662339D01*
X139890890Y-92684866D01*
X139859569Y-92701607D01*
X139825591Y-92711915D01*
X139784110Y-92716000D01*
X139107890Y-92716000D01*
X139066409Y-92711915D01*
X139032431Y-92701607D01*
X139001110Y-92684866D01*
X138973661Y-92662339D01*
X138951134Y-92634890D01*
X138934393Y-92603569D01*
X138924085Y-92569591D01*
X138920000Y-92528110D01*
X138920000Y-91926890D01*
X138924085Y-91885409D01*
X138934393Y-91851431D01*
X138951134Y-91820110D01*
X138973661Y-91792661D01*
X139001110Y-91770134D01*
X139032431Y-91753393D01*
X139066409Y-91743085D01*
X139107890Y-91739000D01*
X139784110Y-91739000D01*
X139825591Y-91743085D01*
G37*
G36*
X141511721Y-91545174D02*
G01*
X141611995Y-91586709D01*
X141611996Y-91586710D01*
X141702242Y-91647010D01*
X141778990Y-91723758D01*
X141778991Y-91723760D01*
X141839291Y-91814005D01*
X141880826Y-91914279D01*
X141902000Y-92020730D01*
X141902000Y-92129270D01*
X141880826Y-92235721D01*
X141839291Y-92335995D01*
X141839290Y-92335996D01*
X141778990Y-92426242D01*
X141702242Y-92502990D01*
X141677681Y-92519401D01*
X141611995Y-92563291D01*
X141511721Y-92604826D01*
X141405270Y-92626000D01*
X141296730Y-92626000D01*
X141190279Y-92604826D01*
X141090005Y-92563291D01*
X141024319Y-92519401D01*
X140999758Y-92502990D01*
X140923010Y-92426242D01*
X140862710Y-92335996D01*
X140862709Y-92335995D01*
X140821174Y-92235721D01*
X140800000Y-92129270D01*
X140800000Y-92020730D01*
X140821174Y-91914279D01*
X140862709Y-91814005D01*
X140923009Y-91723760D01*
X140923010Y-91723758D01*
X140999758Y-91647010D01*
X141090004Y-91586710D01*
X141090005Y-91586709D01*
X141190279Y-91545174D01*
X141296730Y-91524000D01*
X141405270Y-91524000D01*
X141511721Y-91545174D01*
G37*
G36*
X143543721Y-91545174D02*
G01*
X143643995Y-91586709D01*
X143643996Y-91586710D01*
X143734242Y-91647010D01*
X143810990Y-91723758D01*
X143810991Y-91723760D01*
X143871291Y-91814005D01*
X143912826Y-91914279D01*
X143934000Y-92020730D01*
X143934000Y-92129270D01*
X143912826Y-92235721D01*
X143871291Y-92335995D01*
X143871290Y-92335996D01*
X143810990Y-92426242D01*
X143734242Y-92502990D01*
X143709681Y-92519401D01*
X143643995Y-92563291D01*
X143543721Y-92604826D01*
X143437270Y-92626000D01*
X143328730Y-92626000D01*
X143222279Y-92604826D01*
X143122005Y-92563291D01*
X143056319Y-92519401D01*
X143031758Y-92502990D01*
X142955010Y-92426242D01*
X142894710Y-92335996D01*
X142894709Y-92335995D01*
X142853174Y-92235721D01*
X142832000Y-92129270D01*
X142832000Y-92020730D01*
X142853174Y-91914279D01*
X142894709Y-91814005D01*
X142955009Y-91723760D01*
X142955010Y-91723758D01*
X143031758Y-91647010D01*
X143122004Y-91586710D01*
X143122005Y-91586709D01*
X143222279Y-91545174D01*
X143328730Y-91524000D01*
X143437270Y-91524000D01*
X143543721Y-91545174D01*
G37*
G36*
X150306228Y-89168483D02*
G01*
X150494922Y-89225723D01*
X150668815Y-89318671D01*
X150821239Y-89443761D01*
X150946329Y-89596185D01*
X151039277Y-89770078D01*
X151096517Y-89958772D01*
X151115843Y-90155000D01*
X151096517Y-90351228D01*
X151039277Y-90539922D01*
X150946329Y-90713815D01*
X150821239Y-90866239D01*
X150668815Y-90991329D01*
X150494922Y-91084277D01*
X150306228Y-91141517D01*
X150159175Y-91156000D01*
X148460825Y-91156000D01*
X148313772Y-91141517D01*
X148125078Y-91084277D01*
X147951185Y-90991329D01*
X147798761Y-90866239D01*
X147673671Y-90713815D01*
X147580723Y-90539922D01*
X147523483Y-90351228D01*
X147504157Y-90155000D01*
X147523483Y-89958772D01*
X147580723Y-89770078D01*
X147673671Y-89596185D01*
X147798761Y-89443761D01*
X147951185Y-89318671D01*
X148125078Y-89225723D01*
X148313772Y-89168483D01*
X148460825Y-89154000D01*
X150159175Y-89154000D01*
X150306228Y-89168483D01*
G37*
G36*
X132459591Y-90168085D02*
G01*
X132493569Y-90178393D01*
X132524890Y-90195134D01*
X132552339Y-90217661D01*
X132574866Y-90245110D01*
X132591607Y-90276431D01*
X132601915Y-90310409D01*
X132606000Y-90351890D01*
X132606000Y-90953110D01*
X132601915Y-90994591D01*
X132591607Y-91028569D01*
X132574866Y-91059890D01*
X132552339Y-91087339D01*
X132524890Y-91109866D01*
X132493569Y-91126607D01*
X132459591Y-91136915D01*
X132418110Y-91141000D01*
X131741890Y-91141000D01*
X131700409Y-91136915D01*
X131666431Y-91126607D01*
X131635110Y-91109866D01*
X131607661Y-91087339D01*
X131585134Y-91059890D01*
X131568393Y-91028569D01*
X131558085Y-90994591D01*
X131554000Y-90953110D01*
X131554000Y-90351890D01*
X131558085Y-90310409D01*
X131568393Y-90276431D01*
X131585134Y-90245110D01*
X131607661Y-90217661D01*
X131635110Y-90195134D01*
X131666431Y-90178393D01*
X131700409Y-90168085D01*
X131741890Y-90164000D01*
X132418110Y-90164000D01*
X132459591Y-90168085D01*
G37*
G36*
X133983591Y-90168085D02*
G01*
X134017569Y-90178393D01*
X134048890Y-90195134D01*
X134076339Y-90217661D01*
X134098866Y-90245110D01*
X134115607Y-90276431D01*
X134125915Y-90310409D01*
X134130000Y-90351890D01*
X134130000Y-90953110D01*
X134125915Y-90994591D01*
X134115607Y-91028569D01*
X134098866Y-91059890D01*
X134076339Y-91087339D01*
X134048890Y-91109866D01*
X134017569Y-91126607D01*
X133983591Y-91136915D01*
X133942110Y-91141000D01*
X133265890Y-91141000D01*
X133224409Y-91136915D01*
X133190431Y-91126607D01*
X133159110Y-91109866D01*
X133131661Y-91087339D01*
X133109134Y-91059890D01*
X133092393Y-91028569D01*
X133082085Y-90994591D01*
X133078000Y-90953110D01*
X133078000Y-90351890D01*
X133082085Y-90310409D01*
X133092393Y-90276431D01*
X133109134Y-90245110D01*
X133131661Y-90217661D01*
X133159110Y-90195134D01*
X133190431Y-90178393D01*
X133224409Y-90168085D01*
X133265890Y-90164000D01*
X133942110Y-90164000D01*
X133983591Y-90168085D01*
G37*
G36*
X139825591Y-90168085D02*
G01*
X139859569Y-90178393D01*
X139890890Y-90195134D01*
X139918339Y-90217661D01*
X139940866Y-90245110D01*
X139957607Y-90276431D01*
X139967915Y-90310409D01*
X139972000Y-90351890D01*
X139972000Y-90953110D01*
X139967915Y-90994591D01*
X139957607Y-91028569D01*
X139940866Y-91059890D01*
X139918339Y-91087339D01*
X139890890Y-91109866D01*
X139859569Y-91126607D01*
X139825591Y-91136915D01*
X139784110Y-91141000D01*
X139107890Y-91141000D01*
X139066409Y-91136915D01*
X139032431Y-91126607D01*
X139001110Y-91109866D01*
X138973661Y-91087339D01*
X138951134Y-91059890D01*
X138934393Y-91028569D01*
X138924085Y-90994591D01*
X138920000Y-90953110D01*
X138920000Y-90351890D01*
X138924085Y-90310409D01*
X138934393Y-90276431D01*
X138951134Y-90245110D01*
X138973661Y-90217661D01*
X139001110Y-90195134D01*
X139032431Y-90178393D01*
X139066409Y-90168085D01*
X139107890Y-90164000D01*
X139784110Y-90164000D01*
X139825591Y-90168085D01*
G37*
G36*
X125823494Y-88888111D02*
G01*
X125857726Y-88898496D01*
X125889286Y-88915365D01*
X125916940Y-88938060D01*
X125939635Y-88965714D01*
X125956504Y-88997274D01*
X125966889Y-89031506D01*
X125971000Y-89073252D01*
X125971000Y-90796748D01*
X125966889Y-90838494D01*
X125956504Y-90872726D01*
X125939635Y-90904286D01*
X125916940Y-90931940D01*
X125889286Y-90954635D01*
X125857726Y-90971504D01*
X125823494Y-90981889D01*
X125781748Y-90986000D01*
X122058252Y-90986000D01*
X122016506Y-90981889D01*
X121982274Y-90971504D01*
X121950714Y-90954635D01*
X121923060Y-90931940D01*
X121900365Y-90904286D01*
X121883496Y-90872726D01*
X121873111Y-90838494D01*
X121869000Y-90796748D01*
X121869000Y-89073252D01*
X121873111Y-89031506D01*
X121883496Y-88997274D01*
X121900365Y-88965714D01*
X121923060Y-88938060D01*
X121950714Y-88915365D01*
X121982274Y-88898496D01*
X122016506Y-88888111D01*
X122058252Y-88884000D01*
X125781748Y-88884000D01*
X125823494Y-88888111D01*
G37*
G36*
X144559721Y-89767174D02*
G01*
X144659995Y-89808709D01*
X144659996Y-89808710D01*
X144750242Y-89869010D01*
X144826990Y-89945758D01*
X144857345Y-89991188D01*
X144887291Y-90036005D01*
X144928826Y-90136279D01*
X144950000Y-90242730D01*
X144950000Y-90351270D01*
X144928826Y-90457721D01*
X144887291Y-90557995D01*
X144887290Y-90557996D01*
X144826990Y-90648242D01*
X144750242Y-90724990D01*
X144704812Y-90755345D01*
X144659995Y-90785291D01*
X144559721Y-90826826D01*
X144453270Y-90848000D01*
X144344730Y-90848000D01*
X144238279Y-90826826D01*
X144138005Y-90785291D01*
X144093188Y-90755345D01*
X144047758Y-90724990D01*
X143971010Y-90648242D01*
X143910710Y-90557996D01*
X143910709Y-90557995D01*
X143869174Y-90457721D01*
X143848000Y-90351270D01*
X143848000Y-90242730D01*
X143869174Y-90136279D01*
X143910709Y-90036005D01*
X143940655Y-89991188D01*
X143971010Y-89945758D01*
X144047758Y-89869010D01*
X144138004Y-89808710D01*
X144138005Y-89808709D01*
X144238279Y-89767174D01*
X144344730Y-89746000D01*
X144453270Y-89746000D01*
X144559721Y-89767174D01*
G37*
G36*
X142527721Y-89767174D02*
G01*
X142627995Y-89808709D01*
X142627996Y-89808710D01*
X142718242Y-89869010D01*
X142794990Y-89945758D01*
X142825345Y-89991188D01*
X142855291Y-90036005D01*
X142896826Y-90136279D01*
X142918000Y-90242730D01*
X142918000Y-90351270D01*
X142896826Y-90457721D01*
X142855291Y-90557995D01*
X142855290Y-90557996D01*
X142794990Y-90648242D01*
X142718242Y-90724990D01*
X142672812Y-90755345D01*
X142627995Y-90785291D01*
X142527721Y-90826826D01*
X142421270Y-90848000D01*
X142312730Y-90848000D01*
X142206279Y-90826826D01*
X142106005Y-90785291D01*
X142061188Y-90755345D01*
X142015758Y-90724990D01*
X141939010Y-90648242D01*
X141878710Y-90557996D01*
X141878709Y-90557995D01*
X141837174Y-90457721D01*
X141816000Y-90351270D01*
X141816000Y-90242730D01*
X141837174Y-90136279D01*
X141878709Y-90036005D01*
X141908655Y-89991188D01*
X141939010Y-89945758D01*
X142015758Y-89869010D01*
X142106004Y-89808710D01*
X142106005Y-89808709D01*
X142206279Y-89767174D01*
X142312730Y-89746000D01*
X142421270Y-89746000D01*
X142527721Y-89767174D01*
G37*
G36*
X127316591Y-89394085D02*
G01*
X127350569Y-89404393D01*
X127381890Y-89421134D01*
X127409339Y-89443661D01*
X127431866Y-89471110D01*
X127448607Y-89502431D01*
X127458915Y-89536409D01*
X127463000Y-89577890D01*
X127463000Y-90254110D01*
X127458915Y-90295591D01*
X127448607Y-90329569D01*
X127431866Y-90360890D01*
X127409339Y-90388339D01*
X127381890Y-90410866D01*
X127350569Y-90427607D01*
X127316591Y-90437915D01*
X127275110Y-90442000D01*
X126673890Y-90442000D01*
X126632409Y-90437915D01*
X126598431Y-90427607D01*
X126567110Y-90410866D01*
X126539661Y-90388339D01*
X126517134Y-90360890D01*
X126500393Y-90329569D01*
X126490085Y-90295591D01*
X126486000Y-90254110D01*
X126486000Y-89577890D01*
X126490085Y-89536409D01*
X126500393Y-89502431D01*
X126517134Y-89471110D01*
X126539661Y-89443661D01*
X126567110Y-89421134D01*
X126598431Y-89404393D01*
X126632409Y-89394085D01*
X126673890Y-89390000D01*
X127275110Y-89390000D01*
X127316591Y-89394085D01*
G37*
G36*
X128891591Y-89394085D02*
G01*
X128925569Y-89404393D01*
X128956890Y-89421134D01*
X128984339Y-89443661D01*
X129006866Y-89471110D01*
X129023607Y-89502431D01*
X129033915Y-89536409D01*
X129038000Y-89577890D01*
X129038000Y-90254110D01*
X129033915Y-90295591D01*
X129023607Y-90329569D01*
X129006866Y-90360890D01*
X128984339Y-90388339D01*
X128956890Y-90410866D01*
X128925569Y-90427607D01*
X128891591Y-90437915D01*
X128850110Y-90442000D01*
X128248890Y-90442000D01*
X128207409Y-90437915D01*
X128173431Y-90427607D01*
X128142110Y-90410866D01*
X128114661Y-90388339D01*
X128092134Y-90360890D01*
X128075393Y-90329569D01*
X128065085Y-90295591D01*
X128061000Y-90254110D01*
X128061000Y-89577890D01*
X128065085Y-89536409D01*
X128075393Y-89502431D01*
X128092134Y-89471110D01*
X128114661Y-89443661D01*
X128142110Y-89421134D01*
X128173431Y-89404393D01*
X128207409Y-89394085D01*
X128248890Y-89390000D01*
X128850110Y-89390000D01*
X128891591Y-89394085D01*
G37*
G36*
X147861000Y-88556000D02*
G01*
X145259000Y-88556000D01*
X145259000Y-87354000D01*
X147861000Y-87354000D01*
X147861000Y-88556000D01*
G37*
G36*
X136904591Y-87298085D02*
G01*
X136938569Y-87308393D01*
X136969890Y-87325134D01*
X136997339Y-87347661D01*
X137019866Y-87375110D01*
X137036607Y-87406431D01*
X137046915Y-87440409D01*
X137051000Y-87481890D01*
X137051000Y-88083110D01*
X137046915Y-88124591D01*
X137036607Y-88158569D01*
X137019866Y-88189890D01*
X136997339Y-88217339D01*
X136969890Y-88239866D01*
X136938569Y-88256607D01*
X136904591Y-88266915D01*
X136863110Y-88271000D01*
X136186890Y-88271000D01*
X136145409Y-88266915D01*
X136111431Y-88256607D01*
X136080110Y-88239866D01*
X136052661Y-88217339D01*
X136030134Y-88189890D01*
X136013393Y-88158569D01*
X136003085Y-88124591D01*
X135999000Y-88083110D01*
X135999000Y-87481890D01*
X136003085Y-87440409D01*
X136013393Y-87406431D01*
X136030134Y-87375110D01*
X136052661Y-87347661D01*
X136080110Y-87325134D01*
X136111431Y-87308393D01*
X136145409Y-87298085D01*
X136186890Y-87294000D01*
X136863110Y-87294000D01*
X136904591Y-87298085D01*
G37*
G36*
X125823494Y-86148111D02*
G01*
X125857726Y-86158496D01*
X125889286Y-86175365D01*
X125916940Y-86198060D01*
X125939635Y-86225714D01*
X125956504Y-86257274D01*
X125966889Y-86291506D01*
X125971000Y-86333252D01*
X125971000Y-88056748D01*
X125966889Y-88098494D01*
X125956504Y-88132726D01*
X125939635Y-88164286D01*
X125916940Y-88191940D01*
X125889286Y-88214635D01*
X125857726Y-88231504D01*
X125823494Y-88241889D01*
X125781748Y-88246000D01*
X122058252Y-88246000D01*
X122016506Y-88241889D01*
X121982274Y-88231504D01*
X121950714Y-88214635D01*
X121923060Y-88191940D01*
X121900365Y-88164286D01*
X121883496Y-88132726D01*
X121873111Y-88098494D01*
X121869000Y-88056748D01*
X121869000Y-86333252D01*
X121873111Y-86291506D01*
X121883496Y-86257274D01*
X121900365Y-86225714D01*
X121923060Y-86198060D01*
X121950714Y-86175365D01*
X121982274Y-86158496D01*
X122016506Y-86148111D01*
X122058252Y-86144000D01*
X125781748Y-86144000D01*
X125823494Y-86148111D01*
G37*
G36*
X128891591Y-86600085D02*
G01*
X128925569Y-86610393D01*
X128956890Y-86627134D01*
X128984339Y-86649661D01*
X129006866Y-86677110D01*
X129023607Y-86708431D01*
X129033915Y-86742409D01*
X129038000Y-86783890D01*
X129038000Y-87460110D01*
X129033915Y-87501591D01*
X129023607Y-87535569D01*
X129006866Y-87566890D01*
X128984339Y-87594339D01*
X128956890Y-87616866D01*
X128925569Y-87633607D01*
X128891591Y-87643915D01*
X128850110Y-87648000D01*
X128248890Y-87648000D01*
X128207409Y-87643915D01*
X128173431Y-87633607D01*
X128142110Y-87616866D01*
X128114661Y-87594339D01*
X128092134Y-87566890D01*
X128075393Y-87535569D01*
X128065085Y-87501591D01*
X128061000Y-87460110D01*
X128061000Y-86783890D01*
X128065085Y-86742409D01*
X128075393Y-86708431D01*
X128092134Y-86677110D01*
X128114661Y-86649661D01*
X128142110Y-86627134D01*
X128173431Y-86610393D01*
X128207409Y-86600085D01*
X128248890Y-86596000D01*
X128850110Y-86596000D01*
X128891591Y-86600085D01*
G37*
G36*
X127316591Y-86600085D02*
G01*
X127350569Y-86610393D01*
X127381890Y-86627134D01*
X127409339Y-86649661D01*
X127431866Y-86677110D01*
X127448607Y-86708431D01*
X127458915Y-86742409D01*
X127463000Y-86783890D01*
X127463000Y-87460110D01*
X127458915Y-87501591D01*
X127448607Y-87535569D01*
X127431866Y-87566890D01*
X127409339Y-87594339D01*
X127381890Y-87616866D01*
X127350569Y-87633607D01*
X127316591Y-87643915D01*
X127275110Y-87648000D01*
X126673890Y-87648000D01*
X126632409Y-87643915D01*
X126598431Y-87633607D01*
X126567110Y-87616866D01*
X126539661Y-87594339D01*
X126517134Y-87566890D01*
X126500393Y-87535569D01*
X126490085Y-87501591D01*
X126486000Y-87460110D01*
X126486000Y-86783890D01*
X126490085Y-86742409D01*
X126500393Y-86708431D01*
X126517134Y-86677110D01*
X126539661Y-86649661D01*
X126567110Y-86627134D01*
X126598431Y-86610393D01*
X126632409Y-86600085D01*
X126673890Y-86596000D01*
X127275110Y-86596000D01*
X127316591Y-86600085D01*
G37*
G36*
X149446601Y-86169397D02*
G01*
X149485305Y-86177096D01*
X149517340Y-86190365D01*
X149594680Y-86222400D01*
X149693115Y-86288173D01*
X149776827Y-86371885D01*
X149842600Y-86470320D01*
X149873624Y-86545220D01*
X149887904Y-86579695D01*
X149889446Y-86587448D01*
X149911000Y-86695805D01*
X149911000Y-86814195D01*
X149887904Y-86930304D01*
X149842600Y-87039680D01*
X149776827Y-87138115D01*
X149693115Y-87221827D01*
X149594680Y-87287600D01*
X149517340Y-87319635D01*
X149485305Y-87332904D01*
X149446601Y-87340603D01*
X149369195Y-87356000D01*
X149250805Y-87356000D01*
X149173399Y-87340603D01*
X149134695Y-87332904D01*
X149102660Y-87319635D01*
X149025320Y-87287600D01*
X148926885Y-87221827D01*
X148843173Y-87138115D01*
X148777400Y-87039680D01*
X148732096Y-86930304D01*
X148709000Y-86814195D01*
X148709000Y-86695805D01*
X148730554Y-86587448D01*
X148732096Y-86579695D01*
X148746376Y-86545220D01*
X148777400Y-86470320D01*
X148843173Y-86371885D01*
X148926885Y-86288173D01*
X149025320Y-86222400D01*
X149102660Y-86190365D01*
X149134695Y-86177096D01*
X149173399Y-86169397D01*
X149250805Y-86154000D01*
X149369195Y-86154000D01*
X149446601Y-86169397D01*
G37*
G36*
X136904591Y-85723085D02*
G01*
X136938569Y-85733393D01*
X136969890Y-85750134D01*
X136997339Y-85772661D01*
X137019866Y-85800110D01*
X137036607Y-85831431D01*
X137046915Y-85865409D01*
X137051000Y-85906890D01*
X137051000Y-86508110D01*
X137046915Y-86549591D01*
X137036607Y-86583569D01*
X137019866Y-86614890D01*
X136997339Y-86642339D01*
X136969890Y-86664866D01*
X136938569Y-86681607D01*
X136904591Y-86691915D01*
X136863110Y-86696000D01*
X136186890Y-86696000D01*
X136145409Y-86691915D01*
X136111431Y-86681607D01*
X136080110Y-86664866D01*
X136052661Y-86642339D01*
X136030134Y-86614890D01*
X136013393Y-86583569D01*
X136003085Y-86549591D01*
X135999000Y-86508110D01*
X135999000Y-85906890D01*
X136003085Y-85865409D01*
X136013393Y-85831431D01*
X136030134Y-85800110D01*
X136052661Y-85772661D01*
X136080110Y-85750134D01*
X136111431Y-85733393D01*
X136145409Y-85723085D01*
X136186890Y-85719000D01*
X136863110Y-85719000D01*
X136904591Y-85723085D01*
G37*
G36*
X147861000Y-86056000D02*
G01*
X145259000Y-86056000D01*
X145259000Y-84854000D01*
X147861000Y-84854000D01*
X147861000Y-86056000D01*
G37*
G36*
X125823494Y-83408111D02*
G01*
X125857726Y-83418496D01*
X125889286Y-83435365D01*
X125916940Y-83458060D01*
X125939635Y-83485714D01*
X125956504Y-83517274D01*
X125966889Y-83551506D01*
X125971000Y-83593252D01*
X125971000Y-85316748D01*
X125966889Y-85358494D01*
X125956504Y-85392726D01*
X125939635Y-85424286D01*
X125916940Y-85451940D01*
X125889286Y-85474635D01*
X125857726Y-85491504D01*
X125823494Y-85501889D01*
X125781748Y-85506000D01*
X122058252Y-85506000D01*
X122016506Y-85501889D01*
X121982274Y-85491504D01*
X121950714Y-85474635D01*
X121923060Y-85451940D01*
X121900365Y-85424286D01*
X121883496Y-85392726D01*
X121873111Y-85358494D01*
X121869000Y-85316748D01*
X121869000Y-83593252D01*
X121873111Y-83551506D01*
X121883496Y-83517274D01*
X121900365Y-83485714D01*
X121923060Y-83458060D01*
X121950714Y-83435365D01*
X121982274Y-83418496D01*
X122016506Y-83408111D01*
X122058252Y-83404000D01*
X125781748Y-83404000D01*
X125823494Y-83408111D01*
G37*
G36*
X134962091Y-83933085D02*
G01*
X134996069Y-83943393D01*
X135027390Y-83960134D01*
X135054839Y-83982661D01*
X135077366Y-84010110D01*
X135094107Y-84041431D01*
X135104415Y-84075409D01*
X135108500Y-84116890D01*
X135108500Y-84793110D01*
X135104415Y-84834591D01*
X135094107Y-84868569D01*
X135077366Y-84899890D01*
X135054839Y-84927339D01*
X135027390Y-84949866D01*
X134996069Y-84966607D01*
X134962091Y-84976915D01*
X134920610Y-84981000D01*
X134319390Y-84981000D01*
X134277909Y-84976915D01*
X134243931Y-84966607D01*
X134212610Y-84949866D01*
X134185161Y-84927339D01*
X134162634Y-84899890D01*
X134145893Y-84868569D01*
X134135585Y-84834591D01*
X134131500Y-84793110D01*
X134131500Y-84116890D01*
X134135585Y-84075409D01*
X134145893Y-84041431D01*
X134162634Y-84010110D01*
X134185161Y-83982661D01*
X134212610Y-83960134D01*
X134243931Y-83943393D01*
X134277909Y-83933085D01*
X134319390Y-83929000D01*
X134920610Y-83929000D01*
X134962091Y-83933085D01*
G37*
G36*
X127316591Y-83933085D02*
G01*
X127350569Y-83943393D01*
X127381890Y-83960134D01*
X127409339Y-83982661D01*
X127431866Y-84010110D01*
X127448607Y-84041431D01*
X127458915Y-84075409D01*
X127463000Y-84116890D01*
X127463000Y-84793110D01*
X127458915Y-84834591D01*
X127448607Y-84868569D01*
X127431866Y-84899890D01*
X127409339Y-84927339D01*
X127381890Y-84949866D01*
X127350569Y-84966607D01*
X127316591Y-84976915D01*
X127275110Y-84981000D01*
X126673890Y-84981000D01*
X126632409Y-84976915D01*
X126598431Y-84966607D01*
X126567110Y-84949866D01*
X126539661Y-84927339D01*
X126517134Y-84899890D01*
X126500393Y-84868569D01*
X126490085Y-84834591D01*
X126486000Y-84793110D01*
X126486000Y-84116890D01*
X126490085Y-84075409D01*
X126500393Y-84041431D01*
X126517134Y-84010110D01*
X126539661Y-83982661D01*
X126567110Y-83960134D01*
X126598431Y-83943393D01*
X126632409Y-83933085D01*
X126673890Y-83929000D01*
X127275110Y-83929000D01*
X127316591Y-83933085D01*
G37*
G36*
X140194591Y-83933085D02*
G01*
X140228569Y-83943393D01*
X140259890Y-83960134D01*
X140287339Y-83982661D01*
X140309866Y-84010110D01*
X140326607Y-84041431D01*
X140336915Y-84075409D01*
X140341000Y-84116890D01*
X140341000Y-84793110D01*
X140336915Y-84834591D01*
X140326607Y-84868569D01*
X140309866Y-84899890D01*
X140287339Y-84927339D01*
X140259890Y-84949866D01*
X140228569Y-84966607D01*
X140194591Y-84976915D01*
X140153110Y-84981000D01*
X139551890Y-84981000D01*
X139510409Y-84976915D01*
X139476431Y-84966607D01*
X139445110Y-84949866D01*
X139417661Y-84927339D01*
X139395134Y-84899890D01*
X139378393Y-84868569D01*
X139368085Y-84834591D01*
X139364000Y-84793110D01*
X139364000Y-84116890D01*
X139368085Y-84075409D01*
X139378393Y-84041431D01*
X139395134Y-84010110D01*
X139417661Y-83982661D01*
X139445110Y-83960134D01*
X139476431Y-83943393D01*
X139510409Y-83933085D01*
X139551890Y-83929000D01*
X140153110Y-83929000D01*
X140194591Y-83933085D01*
G37*
G36*
X138619591Y-83933085D02*
G01*
X138653569Y-83943393D01*
X138684890Y-83960134D01*
X138712339Y-83982661D01*
X138734866Y-84010110D01*
X138751607Y-84041431D01*
X138761915Y-84075409D01*
X138766000Y-84116890D01*
X138766000Y-84793110D01*
X138761915Y-84834591D01*
X138751607Y-84868569D01*
X138734866Y-84899890D01*
X138712339Y-84927339D01*
X138684890Y-84949866D01*
X138653569Y-84966607D01*
X138619591Y-84976915D01*
X138578110Y-84981000D01*
X137976890Y-84981000D01*
X137935409Y-84976915D01*
X137901431Y-84966607D01*
X137870110Y-84949866D01*
X137842661Y-84927339D01*
X137820134Y-84899890D01*
X137803393Y-84868569D01*
X137793085Y-84834591D01*
X137789000Y-84793110D01*
X137789000Y-84116890D01*
X137793085Y-84075409D01*
X137803393Y-84041431D01*
X137820134Y-84010110D01*
X137842661Y-83982661D01*
X137870110Y-83960134D01*
X137901431Y-83943393D01*
X137935409Y-83933085D01*
X137976890Y-83929000D01*
X138578110Y-83929000D01*
X138619591Y-83933085D01*
G37*
G36*
X128891591Y-83933085D02*
G01*
X128925569Y-83943393D01*
X128956890Y-83960134D01*
X128984339Y-83982661D01*
X129006866Y-84010110D01*
X129023607Y-84041431D01*
X129033915Y-84075409D01*
X129038000Y-84116890D01*
X129038000Y-84793110D01*
X129033915Y-84834591D01*
X129023607Y-84868569D01*
X129006866Y-84899890D01*
X128984339Y-84927339D01*
X128956890Y-84949866D01*
X128925569Y-84966607D01*
X128891591Y-84976915D01*
X128850110Y-84981000D01*
X128248890Y-84981000D01*
X128207409Y-84976915D01*
X128173431Y-84966607D01*
X128142110Y-84949866D01*
X128114661Y-84927339D01*
X128092134Y-84899890D01*
X128075393Y-84868569D01*
X128065085Y-84834591D01*
X128061000Y-84793110D01*
X128061000Y-84116890D01*
X128065085Y-84075409D01*
X128075393Y-84041431D01*
X128092134Y-84010110D01*
X128114661Y-83982661D01*
X128142110Y-83960134D01*
X128173431Y-83943393D01*
X128207409Y-83933085D01*
X128248890Y-83929000D01*
X128850110Y-83929000D01*
X128891591Y-83933085D01*
G37*
G36*
X133387091Y-83933085D02*
G01*
X133421069Y-83943393D01*
X133452390Y-83960134D01*
X133479839Y-83982661D01*
X133502366Y-84010110D01*
X133519107Y-84041431D01*
X133529415Y-84075409D01*
X133533500Y-84116890D01*
X133533500Y-84793110D01*
X133529415Y-84834591D01*
X133519107Y-84868569D01*
X133502366Y-84899890D01*
X133479839Y-84927339D01*
X133452390Y-84949866D01*
X133421069Y-84966607D01*
X133387091Y-84976915D01*
X133345610Y-84981000D01*
X132744390Y-84981000D01*
X132702909Y-84976915D01*
X132668931Y-84966607D01*
X132637610Y-84949866D01*
X132610161Y-84927339D01*
X132587634Y-84899890D01*
X132570893Y-84868569D01*
X132560585Y-84834591D01*
X132556500Y-84793110D01*
X132556500Y-84116890D01*
X132560585Y-84075409D01*
X132570893Y-84041431D01*
X132587634Y-84010110D01*
X132610161Y-83982661D01*
X132637610Y-83960134D01*
X132668931Y-83943393D01*
X132702909Y-83933085D01*
X132744390Y-83929000D01*
X133345610Y-83929000D01*
X133387091Y-83933085D01*
G37*
G36*
X147861000Y-84056000D02*
G01*
X145259000Y-84056000D01*
X145259000Y-82854000D01*
X147861000Y-82854000D01*
X147861000Y-84056000D01*
G37*
G36*
X136904591Y-82218085D02*
G01*
X136938569Y-82228393D01*
X136969890Y-82245134D01*
X136997339Y-82267661D01*
X137019866Y-82295110D01*
X137036607Y-82326431D01*
X137046915Y-82360409D01*
X137051000Y-82401890D01*
X137051000Y-83003110D01*
X137046915Y-83044591D01*
X137036607Y-83078569D01*
X137019866Y-83109890D01*
X136997339Y-83137339D01*
X136969890Y-83159866D01*
X136938569Y-83176607D01*
X136904591Y-83186915D01*
X136863110Y-83191000D01*
X136186890Y-83191000D01*
X136145409Y-83186915D01*
X136111431Y-83176607D01*
X136080110Y-83159866D01*
X136052661Y-83137339D01*
X136030134Y-83109890D01*
X136013393Y-83078569D01*
X136003085Y-83044591D01*
X135999000Y-83003110D01*
X135999000Y-82401890D01*
X136003085Y-82360409D01*
X136013393Y-82326431D01*
X136030134Y-82295110D01*
X136052661Y-82267661D01*
X136080110Y-82245134D01*
X136111431Y-82228393D01*
X136145409Y-82218085D01*
X136186890Y-82214000D01*
X136863110Y-82214000D01*
X136904591Y-82218085D01*
G37*
G36*
X125823494Y-80668111D02*
G01*
X125857726Y-80678496D01*
X125889286Y-80695365D01*
X125916940Y-80718060D01*
X125939635Y-80745714D01*
X125956504Y-80777274D01*
X125966889Y-80811506D01*
X125971000Y-80853252D01*
X125971000Y-82576748D01*
X125966889Y-82618494D01*
X125956504Y-82652726D01*
X125939635Y-82684286D01*
X125916940Y-82711940D01*
X125889286Y-82734635D01*
X125857726Y-82751504D01*
X125823494Y-82761889D01*
X125781748Y-82766000D01*
X122058252Y-82766000D01*
X122016506Y-82761889D01*
X121982274Y-82751504D01*
X121950714Y-82734635D01*
X121923060Y-82711940D01*
X121900365Y-82684286D01*
X121883496Y-82652726D01*
X121873111Y-82618494D01*
X121869000Y-82576748D01*
X121869000Y-80853252D01*
X121873111Y-80811506D01*
X121883496Y-80777274D01*
X121900365Y-80745714D01*
X121923060Y-80718060D01*
X121950714Y-80695365D01*
X121982274Y-80678496D01*
X122016506Y-80668111D01*
X122058252Y-80664000D01*
X125781748Y-80664000D01*
X125823494Y-80668111D01*
G37*
G36*
X149446601Y-81569397D02*
G01*
X149485305Y-81577096D01*
X149504063Y-81584866D01*
X149594680Y-81622400D01*
X149693115Y-81688173D01*
X149776827Y-81771885D01*
X149842600Y-81870320D01*
X149887904Y-81979696D01*
X149911000Y-82095805D01*
X149911000Y-82214195D01*
X149901821Y-82260339D01*
X149888675Y-82326431D01*
X149887904Y-82330304D01*
X149842600Y-82439680D01*
X149776827Y-82538115D01*
X149693115Y-82621827D01*
X149594680Y-82687600D01*
X149517440Y-82719593D01*
X149485305Y-82732904D01*
X149446601Y-82740603D01*
X149369195Y-82756000D01*
X149250805Y-82756000D01*
X149173399Y-82740603D01*
X149134695Y-82732904D01*
X149102560Y-82719593D01*
X149025320Y-82687600D01*
X148926885Y-82621827D01*
X148843173Y-82538115D01*
X148777400Y-82439680D01*
X148732096Y-82330304D01*
X148731326Y-82326431D01*
X148718179Y-82260339D01*
X148709000Y-82214195D01*
X148709000Y-82095805D01*
X148732096Y-81979696D01*
X148777400Y-81870320D01*
X148843173Y-81771885D01*
X148926885Y-81688173D01*
X149025320Y-81622400D01*
X149115937Y-81584866D01*
X149134695Y-81577096D01*
X149173399Y-81569397D01*
X149250805Y-81554000D01*
X149369195Y-81554000D01*
X149446601Y-81569397D01*
G37*
G36*
X128891591Y-81266085D02*
G01*
X128925569Y-81276393D01*
X128956890Y-81293134D01*
X128984339Y-81315661D01*
X129006866Y-81343110D01*
X129023607Y-81374431D01*
X129033915Y-81408409D01*
X129038000Y-81449890D01*
X129038000Y-82126110D01*
X129033915Y-82167591D01*
X129023607Y-82201569D01*
X129006866Y-82232890D01*
X128984339Y-82260339D01*
X128956890Y-82282866D01*
X128925569Y-82299607D01*
X128891591Y-82309915D01*
X128850110Y-82314000D01*
X128248890Y-82314000D01*
X128207409Y-82309915D01*
X128173431Y-82299607D01*
X128142110Y-82282866D01*
X128114661Y-82260339D01*
X128092134Y-82232890D01*
X128075393Y-82201569D01*
X128065085Y-82167591D01*
X128061000Y-82126110D01*
X128061000Y-81449890D01*
X128065085Y-81408409D01*
X128075393Y-81374431D01*
X128092134Y-81343110D01*
X128114661Y-81315661D01*
X128142110Y-81293134D01*
X128173431Y-81276393D01*
X128207409Y-81266085D01*
X128248890Y-81262000D01*
X128850110Y-81262000D01*
X128891591Y-81266085D01*
G37*
G36*
X127316591Y-81266085D02*
G01*
X127350569Y-81276393D01*
X127381890Y-81293134D01*
X127409339Y-81315661D01*
X127431866Y-81343110D01*
X127448607Y-81374431D01*
X127458915Y-81408409D01*
X127463000Y-81449890D01*
X127463000Y-82126110D01*
X127458915Y-82167591D01*
X127448607Y-82201569D01*
X127431866Y-82232890D01*
X127409339Y-82260339D01*
X127381890Y-82282866D01*
X127350569Y-82299607D01*
X127316591Y-82309915D01*
X127275110Y-82314000D01*
X126673890Y-82314000D01*
X126632409Y-82309915D01*
X126598431Y-82299607D01*
X126567110Y-82282866D01*
X126539661Y-82260339D01*
X126517134Y-82232890D01*
X126500393Y-82201569D01*
X126490085Y-82167591D01*
X126486000Y-82126110D01*
X126486000Y-81449890D01*
X126490085Y-81408409D01*
X126500393Y-81374431D01*
X126517134Y-81343110D01*
X126539661Y-81315661D01*
X126567110Y-81293134D01*
X126598431Y-81276393D01*
X126632409Y-81266085D01*
X126673890Y-81262000D01*
X127275110Y-81262000D01*
X127316591Y-81266085D01*
G37*
G36*
X136904591Y-80643085D02*
G01*
X136938569Y-80653393D01*
X136969890Y-80670134D01*
X136997339Y-80692661D01*
X137019866Y-80720110D01*
X137036607Y-80751431D01*
X137046915Y-80785409D01*
X137051000Y-80826890D01*
X137051000Y-81428110D01*
X137046915Y-81469591D01*
X137036607Y-81503569D01*
X137019866Y-81534890D01*
X136997339Y-81562339D01*
X136969890Y-81584866D01*
X136938569Y-81601607D01*
X136904591Y-81611915D01*
X136863110Y-81616000D01*
X136186890Y-81616000D01*
X136145409Y-81611915D01*
X136111431Y-81601607D01*
X136080110Y-81584866D01*
X136052661Y-81562339D01*
X136030134Y-81534890D01*
X136013393Y-81503569D01*
X136003085Y-81469591D01*
X135999000Y-81428110D01*
X135999000Y-80826890D01*
X136003085Y-80785409D01*
X136013393Y-80751431D01*
X136030134Y-80720110D01*
X136052661Y-80692661D01*
X136080110Y-80670134D01*
X136111431Y-80653393D01*
X136145409Y-80643085D01*
X136186890Y-80639000D01*
X136863110Y-80639000D01*
X136904591Y-80643085D01*
G37*
G36*
X147861000Y-81556000D02*
G01*
X145259000Y-81556000D01*
X145259000Y-80354000D01*
X147861000Y-80354000D01*
X147861000Y-81556000D01*
G37*
G36*
X139889591Y-80123085D02*
G01*
X139923569Y-80133393D01*
X139954890Y-80150134D01*
X139982339Y-80172661D01*
X140004866Y-80200110D01*
X140021607Y-80231431D01*
X140031915Y-80265409D01*
X140036000Y-80306890D01*
X140036000Y-80983110D01*
X140031915Y-81024591D01*
X140021607Y-81058569D01*
X140004866Y-81089890D01*
X139982339Y-81117339D01*
X139954890Y-81139866D01*
X139923569Y-81156607D01*
X139889591Y-81166915D01*
X139848110Y-81171000D01*
X139246890Y-81171000D01*
X139205409Y-81166915D01*
X139171431Y-81156607D01*
X139140110Y-81139866D01*
X139112661Y-81117339D01*
X139090134Y-81089890D01*
X139073393Y-81058569D01*
X139063085Y-81024591D01*
X139059000Y-80983110D01*
X139059000Y-80306890D01*
X139063085Y-80265409D01*
X139073393Y-80231431D01*
X139090134Y-80200110D01*
X139112661Y-80172661D01*
X139140110Y-80150134D01*
X139171431Y-80133393D01*
X139205409Y-80123085D01*
X139246890Y-80119000D01*
X139848110Y-80119000D01*
X139889591Y-80123085D01*
G37*
G36*
X141464591Y-80123085D02*
G01*
X141498569Y-80133393D01*
X141529890Y-80150134D01*
X141557339Y-80172661D01*
X141579866Y-80200110D01*
X141596607Y-80231431D01*
X141606915Y-80265409D01*
X141611000Y-80306890D01*
X141611000Y-80983110D01*
X141606915Y-81024591D01*
X141596607Y-81058569D01*
X141579866Y-81089890D01*
X141557339Y-81117339D01*
X141529890Y-81139866D01*
X141498569Y-81156607D01*
X141464591Y-81166915D01*
X141423110Y-81171000D01*
X140821890Y-81171000D01*
X140780409Y-81166915D01*
X140746431Y-81156607D01*
X140715110Y-81139866D01*
X140687661Y-81117339D01*
X140665134Y-81089890D01*
X140648393Y-81058569D01*
X140638085Y-81024591D01*
X140634000Y-80983110D01*
X140634000Y-80306890D01*
X140638085Y-80265409D01*
X140648393Y-80231431D01*
X140665134Y-80200110D01*
X140687661Y-80172661D01*
X140715110Y-80150134D01*
X140746431Y-80133393D01*
X140780409Y-80123085D01*
X140821890Y-80119000D01*
X141423110Y-80119000D01*
X141464591Y-80123085D01*
G37*
G36*
X125823494Y-77928111D02*
G01*
X125857726Y-77938496D01*
X125889286Y-77955365D01*
X125916940Y-77978060D01*
X125939635Y-78005714D01*
X125956504Y-78037274D01*
X125966889Y-78071506D01*
X125971000Y-78113252D01*
X125971000Y-79836748D01*
X125966889Y-79878494D01*
X125956504Y-79912726D01*
X125939635Y-79944286D01*
X125916940Y-79971940D01*
X125889286Y-79994635D01*
X125857726Y-80011504D01*
X125823494Y-80021889D01*
X125781748Y-80026000D01*
X122058252Y-80026000D01*
X122016506Y-80021889D01*
X121982274Y-80011504D01*
X121950714Y-79994635D01*
X121923060Y-79971940D01*
X121900365Y-79944286D01*
X121883496Y-79912726D01*
X121873111Y-79878494D01*
X121869000Y-79836748D01*
X121869000Y-78113252D01*
X121873111Y-78071506D01*
X121883496Y-78037274D01*
X121900365Y-78005714D01*
X121923060Y-77978060D01*
X121950714Y-77955365D01*
X121982274Y-77938496D01*
X122016506Y-77928111D01*
X122058252Y-77924000D01*
X125781748Y-77924000D01*
X125823494Y-77928111D01*
G37*
G36*
X150306228Y-77768483D02*
G01*
X150494922Y-77825723D01*
X150668815Y-77918671D01*
X150821239Y-78043761D01*
X150946329Y-78196185D01*
X151039277Y-78370078D01*
X151096517Y-78558772D01*
X151115843Y-78755000D01*
X151096517Y-78951228D01*
X151039277Y-79139922D01*
X150946329Y-79313815D01*
X150821239Y-79466239D01*
X150668815Y-79591329D01*
X150494922Y-79684277D01*
X150306228Y-79741517D01*
X150159175Y-79756000D01*
X148460825Y-79756000D01*
X148313772Y-79741517D01*
X148125078Y-79684277D01*
X147951185Y-79591329D01*
X147798761Y-79466239D01*
X147673671Y-79313815D01*
X147580723Y-79139922D01*
X147523483Y-78951228D01*
X147504157Y-78755000D01*
X147523483Y-78558772D01*
X147580723Y-78370078D01*
X147673671Y-78196185D01*
X147798761Y-78043761D01*
X147951185Y-77918671D01*
X148125078Y-77825723D01*
X148313772Y-77768483D01*
X148460825Y-77754000D01*
X150159175Y-77754000D01*
X150306228Y-77768483D01*
G37*
G36*
X128891591Y-78472085D02*
G01*
X128925569Y-78482393D01*
X128956890Y-78499134D01*
X128984339Y-78521661D01*
X129006866Y-78549110D01*
X129023607Y-78580431D01*
X129033915Y-78614409D01*
X129038000Y-78655890D01*
X129038000Y-79332110D01*
X129033915Y-79373591D01*
X129023607Y-79407569D01*
X129006866Y-79438890D01*
X128984339Y-79466339D01*
X128956890Y-79488866D01*
X128925569Y-79505607D01*
X128891591Y-79515915D01*
X128850110Y-79520000D01*
X128248890Y-79520000D01*
X128207409Y-79515915D01*
X128173431Y-79505607D01*
X128142110Y-79488866D01*
X128114661Y-79466339D01*
X128092134Y-79438890D01*
X128075393Y-79407569D01*
X128065085Y-79373591D01*
X128061000Y-79332110D01*
X128061000Y-78655890D01*
X128065085Y-78614409D01*
X128075393Y-78580431D01*
X128092134Y-78549110D01*
X128114661Y-78521661D01*
X128142110Y-78499134D01*
X128173431Y-78482393D01*
X128207409Y-78472085D01*
X128248890Y-78468000D01*
X128850110Y-78468000D01*
X128891591Y-78472085D01*
G37*
G36*
X127316591Y-78472085D02*
G01*
X127350569Y-78482393D01*
X127381890Y-78499134D01*
X127409339Y-78521661D01*
X127431866Y-78549110D01*
X127448607Y-78580431D01*
X127458915Y-78614409D01*
X127463000Y-78655890D01*
X127463000Y-79332110D01*
X127458915Y-79373591D01*
X127448607Y-79407569D01*
X127431866Y-79438890D01*
X127409339Y-79466339D01*
X127381890Y-79488866D01*
X127350569Y-79505607D01*
X127316591Y-79515915D01*
X127275110Y-79520000D01*
X126673890Y-79520000D01*
X126632409Y-79515915D01*
X126598431Y-79505607D01*
X126567110Y-79488866D01*
X126539661Y-79466339D01*
X126517134Y-79438890D01*
X126500393Y-79407569D01*
X126490085Y-79373591D01*
X126486000Y-79332110D01*
X126486000Y-78655890D01*
X126490085Y-78614409D01*
X126500393Y-78580431D01*
X126517134Y-78549110D01*
X126539661Y-78521661D01*
X126567110Y-78499134D01*
X126598431Y-78482393D01*
X126632409Y-78472085D01*
X126673890Y-78468000D01*
X127275110Y-78468000D01*
X127316591Y-78472085D01*
G37*
G36*
X145999468Y-78176065D02*
G01*
X146038138Y-78187796D01*
X146073777Y-78206846D01*
X146105017Y-78232483D01*
X146130654Y-78263723D01*
X146149704Y-78299362D01*
X146161435Y-78338032D01*
X146166000Y-78384388D01*
X146166000Y-79035612D01*
X146161435Y-79081968D01*
X146149704Y-79120638D01*
X146130654Y-79156277D01*
X146105017Y-79187517D01*
X146073777Y-79213154D01*
X146038138Y-79232204D01*
X145999468Y-79243935D01*
X145953112Y-79248500D01*
X144876888Y-79248500D01*
X144830532Y-79243935D01*
X144791862Y-79232204D01*
X144756223Y-79213154D01*
X144724983Y-79187517D01*
X144699346Y-79156277D01*
X144680296Y-79120638D01*
X144668565Y-79081968D01*
X144664000Y-79035612D01*
X144664000Y-78384388D01*
X144668565Y-78338032D01*
X144680296Y-78299362D01*
X144699346Y-78263723D01*
X144724983Y-78232483D01*
X144756223Y-78206846D01*
X144791862Y-78187796D01*
X144830532Y-78176065D01*
X144876888Y-78171500D01*
X145953112Y-78171500D01*
X145999468Y-78176065D01*
G37*
G36*
X135888591Y-77646085D02*
G01*
X135922569Y-77656393D01*
X135953890Y-77673134D01*
X135981339Y-77695661D01*
X136003866Y-77723110D01*
X136020607Y-77754431D01*
X136030915Y-77788409D01*
X136035000Y-77829890D01*
X136035000Y-78431110D01*
X136030915Y-78472591D01*
X136020607Y-78506569D01*
X136003866Y-78537890D01*
X135981339Y-78565339D01*
X135953890Y-78587866D01*
X135922569Y-78604607D01*
X135888591Y-78614915D01*
X135847110Y-78619000D01*
X135170890Y-78619000D01*
X135129409Y-78614915D01*
X135095431Y-78604607D01*
X135064110Y-78587866D01*
X135036661Y-78565339D01*
X135014134Y-78537890D01*
X134997393Y-78506569D01*
X134987085Y-78472591D01*
X134983000Y-78431110D01*
X134983000Y-77829890D01*
X134987085Y-77788409D01*
X134997393Y-77754431D01*
X135014134Y-77723110D01*
X135036661Y-77695661D01*
X135064110Y-77673134D01*
X135095431Y-77656393D01*
X135129409Y-77646085D01*
X135170890Y-77642000D01*
X135847110Y-77642000D01*
X135888591Y-77646085D01*
G37*
G36*
X137412591Y-77646085D02*
G01*
X137446569Y-77656393D01*
X137477890Y-77673134D01*
X137505339Y-77695661D01*
X137527866Y-77723110D01*
X137544607Y-77754431D01*
X137554915Y-77788409D01*
X137559000Y-77829890D01*
X137559000Y-78431110D01*
X137554915Y-78472591D01*
X137544607Y-78506569D01*
X137527866Y-78537890D01*
X137505339Y-78565339D01*
X137477890Y-78587866D01*
X137446569Y-78604607D01*
X137412591Y-78614915D01*
X137371110Y-78619000D01*
X136694890Y-78619000D01*
X136653409Y-78614915D01*
X136619431Y-78604607D01*
X136588110Y-78587866D01*
X136560661Y-78565339D01*
X136538134Y-78537890D01*
X136521393Y-78506569D01*
X136511085Y-78472591D01*
X136507000Y-78431110D01*
X136507000Y-77829890D01*
X136511085Y-77788409D01*
X136521393Y-77754431D01*
X136538134Y-77723110D01*
X136560661Y-77695661D01*
X136588110Y-77673134D01*
X136619431Y-77656393D01*
X136653409Y-77646085D01*
X136694890Y-77642000D01*
X137371110Y-77642000D01*
X137412591Y-77646085D01*
G37*
G36*
X142111591Y-77646085D02*
G01*
X142145569Y-77656393D01*
X142176890Y-77673134D01*
X142204339Y-77695661D01*
X142226866Y-77723110D01*
X142243607Y-77754431D01*
X142253915Y-77788409D01*
X142258000Y-77829890D01*
X142258000Y-78431110D01*
X142253915Y-78472591D01*
X142243607Y-78506569D01*
X142226866Y-78537890D01*
X142204339Y-78565339D01*
X142176890Y-78587866D01*
X142145569Y-78604607D01*
X142111591Y-78614915D01*
X142070110Y-78619000D01*
X141393890Y-78619000D01*
X141352409Y-78614915D01*
X141318431Y-78604607D01*
X141287110Y-78587866D01*
X141259661Y-78565339D01*
X141237134Y-78537890D01*
X141220393Y-78506569D01*
X141210085Y-78472591D01*
X141206000Y-78431110D01*
X141206000Y-77829890D01*
X141210085Y-77788409D01*
X141220393Y-77754431D01*
X141237134Y-77723110D01*
X141259661Y-77695661D01*
X141287110Y-77673134D01*
X141318431Y-77656393D01*
X141352409Y-77646085D01*
X141393890Y-77642000D01*
X142070110Y-77642000D01*
X142111591Y-77646085D01*
G37*
G36*
X140587591Y-77646085D02*
G01*
X140621569Y-77656393D01*
X140652890Y-77673134D01*
X140680339Y-77695661D01*
X140702866Y-77723110D01*
X140719607Y-77754431D01*
X140729915Y-77788409D01*
X140734000Y-77829890D01*
X140734000Y-78431110D01*
X140729915Y-78472591D01*
X140719607Y-78506569D01*
X140702866Y-78537890D01*
X140680339Y-78565339D01*
X140652890Y-78587866D01*
X140621569Y-78604607D01*
X140587591Y-78614915D01*
X140546110Y-78619000D01*
X139869890Y-78619000D01*
X139828409Y-78614915D01*
X139794431Y-78604607D01*
X139763110Y-78587866D01*
X139735661Y-78565339D01*
X139713134Y-78537890D01*
X139696393Y-78506569D01*
X139686085Y-78472591D01*
X139682000Y-78431110D01*
X139682000Y-77829890D01*
X139686085Y-77788409D01*
X139696393Y-77754431D01*
X139713134Y-77723110D01*
X139735661Y-77695661D01*
X139763110Y-77673134D01*
X139794431Y-77656393D01*
X139828409Y-77646085D01*
X139869890Y-77642000D01*
X140546110Y-77642000D01*
X140587591Y-77646085D01*
G37*
G36*
X145999468Y-76301065D02*
G01*
X146038138Y-76312796D01*
X146073777Y-76331846D01*
X146105017Y-76357483D01*
X146130654Y-76388723D01*
X146149704Y-76424362D01*
X146161435Y-76463032D01*
X146166000Y-76509388D01*
X146166000Y-77160612D01*
X146161435Y-77206968D01*
X146149704Y-77245638D01*
X146130654Y-77281277D01*
X146105017Y-77312517D01*
X146073777Y-77338154D01*
X146038138Y-77357204D01*
X145999468Y-77368935D01*
X145953112Y-77373500D01*
X144876888Y-77373500D01*
X144830532Y-77368935D01*
X144791862Y-77357204D01*
X144756223Y-77338154D01*
X144724983Y-77312517D01*
X144699346Y-77281277D01*
X144680296Y-77245638D01*
X144668565Y-77206968D01*
X144664000Y-77160612D01*
X144664000Y-76509388D01*
X144668565Y-76463032D01*
X144680296Y-76424362D01*
X144699346Y-76388723D01*
X144724983Y-76357483D01*
X144756223Y-76331846D01*
X144791862Y-76312796D01*
X144830532Y-76301065D01*
X144876888Y-76296500D01*
X145953112Y-76296500D01*
X145999468Y-76301065D01*
G37*
G36*
X137412591Y-76071085D02*
G01*
X137446569Y-76081393D01*
X137477890Y-76098134D01*
X137505339Y-76120661D01*
X137527866Y-76148110D01*
X137544607Y-76179431D01*
X137554915Y-76213409D01*
X137559000Y-76254890D01*
X137559000Y-76856110D01*
X137554915Y-76897591D01*
X137544607Y-76931569D01*
X137527866Y-76962890D01*
X137505339Y-76990339D01*
X137477890Y-77012866D01*
X137446569Y-77029607D01*
X137412591Y-77039915D01*
X137371110Y-77044000D01*
X136694890Y-77044000D01*
X136653409Y-77039915D01*
X136619431Y-77029607D01*
X136588110Y-77012866D01*
X136560661Y-76990339D01*
X136538134Y-76962890D01*
X136521393Y-76931569D01*
X136511085Y-76897591D01*
X136507000Y-76856110D01*
X136507000Y-76254890D01*
X136511085Y-76213409D01*
X136521393Y-76179431D01*
X136538134Y-76148110D01*
X136560661Y-76120661D01*
X136588110Y-76098134D01*
X136619431Y-76081393D01*
X136653409Y-76071085D01*
X136694890Y-76067000D01*
X137371110Y-76067000D01*
X137412591Y-76071085D01*
G37*
G36*
X140587591Y-76071085D02*
G01*
X140621569Y-76081393D01*
X140652890Y-76098134D01*
X140680339Y-76120661D01*
X140702866Y-76148110D01*
X140719607Y-76179431D01*
X140729915Y-76213409D01*
X140734000Y-76254890D01*
X140734000Y-76856110D01*
X140729915Y-76897591D01*
X140719607Y-76931569D01*
X140702866Y-76962890D01*
X140680339Y-76990339D01*
X140652890Y-77012866D01*
X140621569Y-77029607D01*
X140587591Y-77039915D01*
X140546110Y-77044000D01*
X139869890Y-77044000D01*
X139828409Y-77039915D01*
X139794431Y-77029607D01*
X139763110Y-77012866D01*
X139735661Y-76990339D01*
X139713134Y-76962890D01*
X139696393Y-76931569D01*
X139686085Y-76897591D01*
X139682000Y-76856110D01*
X139682000Y-76254890D01*
X139686085Y-76213409D01*
X139696393Y-76179431D01*
X139713134Y-76148110D01*
X139735661Y-76120661D01*
X139763110Y-76098134D01*
X139794431Y-76081393D01*
X139828409Y-76071085D01*
X139869890Y-76067000D01*
X140546110Y-76067000D01*
X140587591Y-76071085D01*
G37*
G36*
X142111591Y-76071085D02*
G01*
X142145569Y-76081393D01*
X142176890Y-76098134D01*
X142204339Y-76120661D01*
X142226866Y-76148110D01*
X142243607Y-76179431D01*
X142253915Y-76213409D01*
X142258000Y-76254890D01*
X142258000Y-76856110D01*
X142253915Y-76897591D01*
X142243607Y-76931569D01*
X142226866Y-76962890D01*
X142204339Y-76990339D01*
X142176890Y-77012866D01*
X142145569Y-77029607D01*
X142111591Y-77039915D01*
X142070110Y-77044000D01*
X141393890Y-77044000D01*
X141352409Y-77039915D01*
X141318431Y-77029607D01*
X141287110Y-77012866D01*
X141259661Y-76990339D01*
X141237134Y-76962890D01*
X141220393Y-76931569D01*
X141210085Y-76897591D01*
X141206000Y-76856110D01*
X141206000Y-76254890D01*
X141210085Y-76213409D01*
X141220393Y-76179431D01*
X141237134Y-76148110D01*
X141259661Y-76120661D01*
X141287110Y-76098134D01*
X141318431Y-76081393D01*
X141352409Y-76071085D01*
X141393890Y-76067000D01*
X142070110Y-76067000D01*
X142111591Y-76071085D01*
G37*
G36*
X135888591Y-76071085D02*
G01*
X135922569Y-76081393D01*
X135953890Y-76098134D01*
X135981339Y-76120661D01*
X136003866Y-76148110D01*
X136020607Y-76179431D01*
X136030915Y-76213409D01*
X136035000Y-76254890D01*
X136035000Y-76856110D01*
X136030915Y-76897591D01*
X136020607Y-76931569D01*
X136003866Y-76962890D01*
X135981339Y-76990339D01*
X135953890Y-77012866D01*
X135922569Y-77029607D01*
X135888591Y-77039915D01*
X135847110Y-77044000D01*
X135170890Y-77044000D01*
X135129409Y-77039915D01*
X135095431Y-77029607D01*
X135064110Y-77012866D01*
X135036661Y-76990339D01*
X135014134Y-76962890D01*
X134997393Y-76931569D01*
X134987085Y-76897591D01*
X134983000Y-76856110D01*
X134983000Y-76254890D01*
X134987085Y-76213409D01*
X134997393Y-76179431D01*
X135014134Y-76148110D01*
X135036661Y-76120661D01*
X135064110Y-76098134D01*
X135095431Y-76081393D01*
X135129409Y-76071085D01*
X135170890Y-76067000D01*
X135847110Y-76067000D01*
X135888591Y-76071085D01*
G37*
M02*
