M48
; DRILL file {KiCad 5.1.6-c6e7f7d~86~ubuntu20.04.1} date Fri May 29 14:13:20 2020
; FORMAT={-:-/ absolute / inch / decimal}
; #@! TF.CreationDate,2020-05-29T14:13:20+02:00
; #@! TF.GenerationSoftware,Kicad,Pcbnew,5.1.6-c6e7f7d~86~ubuntu20.04.1
FMAT,2
INCH
T1C0.0157
T2C0.0354
T3C0.0433
%
G90
G05
T1
X4.985Y-3.275
X4.985Y-3.38
X5.03Y-3.38
X5.06Y-3.065
X5.075Y-3.275
X5.075Y-3.38
X5.075Y-3.625
X5.0974Y-3.485
X5.1Y-3.54
X5.11Y-3.02
X5.14Y-3.58
X5.15Y-3.54
X5.215Y-3.255
X5.215Y-3.395
X5.225Y-3.175
X5.26Y-3.02
X5.2652Y-3.1752
X5.3Y-3.49
X5.305Y-3.175
X5.305Y-3.395
X5.445Y-3.49
X5.45Y-3.175
X5.48Y-3.25
X5.4806Y-3.42
X5.524Y-3.4206
X5.53Y-3.25
X5.535Y-3.485
X5.635Y-3.025
X5.645Y-3.515
X5.655Y-3.47
X5.665Y-3.125
X5.67Y-3.025
X5.7Y-3.625
X5.765Y-3.54
X5.84Y-3.325
X5.875Y-3.3
X5.875Y-3.35
X5.88Y-3.175
T3
X5.8783Y-3.2344
X5.8783Y-3.4156
T2
G00X5.8469Y-3.1006
M15
G01X5.9098Y-3.1006
M16
G05
G00X5.8469Y-3.5494
M15
G01X5.9098Y-3.5494
M16
G05
T0
M30
