G04 #@! TF.GenerationSoftware,KiCad,Pcbnew,5.1.6-c6e7f7d~86~ubuntu20.04.1*
G04 #@! TF.CreationDate,2020-05-29T14:13:17+02:00*
G04 #@! TF.ProjectId,atari-usb,61746172-692d-4757-9362-2e6b69636164,rev?*
G04 #@! TF.SameCoordinates,Original*
G04 #@! TF.FileFunction,Legend,Bot*
G04 #@! TF.FilePolarity,Positive*
%FSLAX46Y46*%
G04 Gerber Fmt 4.6, Leading zero omitted, Abs format (unit mm)*
G04 Created by KiCad (PCBNEW 5.1.6-c6e7f7d~86~ubuntu20.04.1) date 2020-05-29 14:13:17*
%MOMM*%
%LPD*%
G01*
G04 APERTURE LIST*
%ADD10C,0.150000*%
%ADD11C,0.120000*%
G04 APERTURE END LIST*
D10*
X150843904Y-77033380D02*
X150843904Y-76509571D01*
X150891523Y-76414333D01*
X150986761Y-76366714D01*
X151177238Y-76366714D01*
X151272476Y-76414333D01*
X150843904Y-76985761D02*
X150939142Y-77033380D01*
X151177238Y-77033380D01*
X151272476Y-76985761D01*
X151320095Y-76890523D01*
X151320095Y-76795285D01*
X151272476Y-76700047D01*
X151177238Y-76652428D01*
X150939142Y-76652428D01*
X150843904Y-76604809D01*
X150510571Y-76366714D02*
X150129619Y-76366714D01*
X150367714Y-76033380D02*
X150367714Y-76890523D01*
X150320095Y-76985761D01*
X150224857Y-77033380D01*
X150129619Y-77033380D01*
X149367714Y-77033380D02*
X149367714Y-76509571D01*
X149415333Y-76414333D01*
X149510571Y-76366714D01*
X149701047Y-76366714D01*
X149796285Y-76414333D01*
X149367714Y-76985761D02*
X149462952Y-77033380D01*
X149701047Y-77033380D01*
X149796285Y-76985761D01*
X149843904Y-76890523D01*
X149843904Y-76795285D01*
X149796285Y-76700047D01*
X149701047Y-76652428D01*
X149462952Y-76652428D01*
X149367714Y-76604809D01*
X148891523Y-77033380D02*
X148891523Y-76366714D01*
X148891523Y-76557190D02*
X148843904Y-76461952D01*
X148796285Y-76414333D01*
X148701047Y-76366714D01*
X148605809Y-76366714D01*
X148272476Y-77033380D02*
X148272476Y-76366714D01*
X148272476Y-76033380D02*
X148320095Y-76081000D01*
X148272476Y-76128619D01*
X148224857Y-76081000D01*
X148272476Y-76033380D01*
X148272476Y-76128619D01*
X146605809Y-76366714D02*
X146605809Y-77033380D01*
X147034380Y-76366714D02*
X147034380Y-76890523D01*
X146986761Y-76985761D01*
X146891523Y-77033380D01*
X146748666Y-77033380D01*
X146653428Y-76985761D01*
X146605809Y-76938142D01*
X146177238Y-76985761D02*
X146082000Y-77033380D01*
X145891523Y-77033380D01*
X145796285Y-76985761D01*
X145748666Y-76890523D01*
X145748666Y-76842904D01*
X145796285Y-76747666D01*
X145891523Y-76700047D01*
X146034380Y-76700047D01*
X146129619Y-76652428D01*
X146177238Y-76557190D01*
X146177238Y-76509571D01*
X146129619Y-76414333D01*
X146034380Y-76366714D01*
X145891523Y-76366714D01*
X145796285Y-76414333D01*
X145320095Y-77033380D02*
X145320095Y-76033380D01*
X145320095Y-76414333D02*
X145224857Y-76366714D01*
X145034380Y-76366714D01*
X144939142Y-76414333D01*
X144891523Y-76461952D01*
X144843904Y-76557190D01*
X144843904Y-76842904D01*
X144891523Y-76938142D01*
X144939142Y-76985761D01*
X145034380Y-77033380D01*
X145224857Y-77033380D01*
X145320095Y-76985761D01*
X146899095Y-78557380D02*
X146899095Y-77890714D01*
X146899095Y-78081190D02*
X146851476Y-77985952D01*
X146803857Y-77938333D01*
X146708619Y-77890714D01*
X146613380Y-77890714D01*
X145899095Y-78509761D02*
X145994333Y-78557380D01*
X146184809Y-78557380D01*
X146280047Y-78509761D01*
X146327666Y-78414523D01*
X146327666Y-78033571D01*
X146280047Y-77938333D01*
X146184809Y-77890714D01*
X145994333Y-77890714D01*
X145899095Y-77938333D01*
X145851476Y-78033571D01*
X145851476Y-78128809D01*
X146327666Y-78224047D01*
X145518142Y-77890714D02*
X145280047Y-78557380D01*
X145041952Y-77890714D01*
X143708619Y-77557380D02*
X143613380Y-77557380D01*
X143518142Y-77605000D01*
X143470523Y-77652619D01*
X143422904Y-77747857D01*
X143375285Y-77938333D01*
X143375285Y-78176428D01*
X143422904Y-78366904D01*
X143470523Y-78462142D01*
X143518142Y-78509761D01*
X143613380Y-78557380D01*
X143708619Y-78557380D01*
X143803857Y-78509761D01*
X143851476Y-78462142D01*
X143899095Y-78366904D01*
X143946714Y-78176428D01*
X143946714Y-77938333D01*
X143899095Y-77747857D01*
X143851476Y-77652619D01*
X143803857Y-77605000D01*
X143708619Y-77557380D01*
X150757000Y-81439142D02*
X150709380Y-81343904D01*
X150709380Y-81201047D01*
X150757000Y-81058190D01*
X150852238Y-80962952D01*
X150947476Y-80915333D01*
X151137952Y-80867714D01*
X151280809Y-80867714D01*
X151471285Y-80915333D01*
X151566523Y-80962952D01*
X151661761Y-81058190D01*
X151709380Y-81201047D01*
X151709380Y-81296285D01*
X151661761Y-81439142D01*
X151614142Y-81486761D01*
X151280809Y-81486761D01*
X151280809Y-81296285D01*
X151709380Y-81915333D02*
X150709380Y-81915333D01*
X151185571Y-81915333D02*
X151185571Y-82486761D01*
X151709380Y-82486761D02*
X150709380Y-82486761D01*
X151614142Y-82962952D02*
X151661761Y-83010571D01*
X151709380Y-82962952D01*
X151661761Y-82915333D01*
X151614142Y-82962952D01*
X151709380Y-82962952D01*
X151090333Y-82962952D02*
X151137952Y-83010571D01*
X151185571Y-82962952D01*
X151137952Y-82915333D01*
X151090333Y-82962952D01*
X151185571Y-82962952D01*
X151042714Y-84201047D02*
X151899857Y-84201047D01*
X151995095Y-84153428D01*
X152042714Y-84058190D01*
X152042714Y-84010571D01*
X150709380Y-84201047D02*
X150757000Y-84153428D01*
X150804619Y-84201047D01*
X150757000Y-84248666D01*
X150709380Y-84201047D01*
X150804619Y-84201047D01*
X151709380Y-84820095D02*
X151661761Y-84724857D01*
X151614142Y-84677238D01*
X151518904Y-84629619D01*
X151233190Y-84629619D01*
X151137952Y-84677238D01*
X151090333Y-84724857D01*
X151042714Y-84820095D01*
X151042714Y-84962952D01*
X151090333Y-85058190D01*
X151137952Y-85105809D01*
X151233190Y-85153428D01*
X151518904Y-85153428D01*
X151614142Y-85105809D01*
X151661761Y-85058190D01*
X151709380Y-84962952D01*
X151709380Y-84820095D01*
X151709380Y-85582000D02*
X151042714Y-85582000D01*
X151137952Y-85582000D02*
X151090333Y-85629619D01*
X151042714Y-85724857D01*
X151042714Y-85867714D01*
X151090333Y-85962952D01*
X151185571Y-86010571D01*
X151709380Y-86010571D01*
X151185571Y-86010571D02*
X151090333Y-86058190D01*
X151042714Y-86153428D01*
X151042714Y-86296285D01*
X151090333Y-86391523D01*
X151185571Y-86439142D01*
X151709380Y-86439142D01*
X151709380Y-87343904D02*
X151185571Y-87343904D01*
X151090333Y-87296285D01*
X151042714Y-87201047D01*
X151042714Y-87010571D01*
X151090333Y-86915333D01*
X151661761Y-87343904D02*
X151709380Y-87248666D01*
X151709380Y-87010571D01*
X151661761Y-86915333D01*
X151566523Y-86867714D01*
X151471285Y-86867714D01*
X151376047Y-86915333D01*
X151328428Y-87010571D01*
X151328428Y-87248666D01*
X151280809Y-87343904D01*
X151042714Y-88248666D02*
X151852238Y-88248666D01*
X151947476Y-88201047D01*
X151995095Y-88153428D01*
X152042714Y-88058190D01*
X152042714Y-87915333D01*
X151995095Y-87820095D01*
X151661761Y-88248666D02*
X151709380Y-88153428D01*
X151709380Y-87962952D01*
X151661761Y-87867714D01*
X151614142Y-87820095D01*
X151518904Y-87772476D01*
X151233190Y-87772476D01*
X151137952Y-87820095D01*
X151090333Y-87867714D01*
X151042714Y-87962952D01*
X151042714Y-88153428D01*
X151090333Y-88248666D01*
D11*
X145730279Y-79754000D02*
X145404721Y-79754000D01*
X145730279Y-80774000D02*
X145404721Y-80774000D01*
X139537221Y-77345000D02*
X139862779Y-77345000D01*
X139537221Y-76325000D02*
X139862779Y-76325000D01*
X138394221Y-92585000D02*
X138719779Y-92585000D01*
X138394221Y-91565000D02*
X138719779Y-91565000D01*
X131536221Y-77218000D02*
X131861779Y-77218000D01*
X131536221Y-76198000D02*
X131861779Y-76198000D01*
X130647221Y-92585000D02*
X130972779Y-92585000D01*
X130647221Y-91565000D02*
X130972779Y-91565000D01*
X145730279Y-88136000D02*
X145404721Y-88136000D01*
X145730279Y-89156000D02*
X145404721Y-89156000D01*
X127599221Y-80901000D02*
X127924779Y-80901000D01*
X127599221Y-79881000D02*
X127924779Y-79881000D01*
X127599221Y-89029000D02*
X127924779Y-89029000D01*
X127599221Y-88009000D02*
X127924779Y-88009000D01*
X146810000Y-82875000D02*
X146810000Y-83805000D01*
X146810000Y-86035000D02*
X146810000Y-85105000D01*
X146810000Y-86035000D02*
X144650000Y-86035000D01*
X146810000Y-82875000D02*
X145350000Y-82875000D01*
X141767779Y-91565000D02*
X141442221Y-91565000D01*
X141767779Y-92585000D02*
X141442221Y-92585000D01*
X145404721Y-82425000D02*
X145730279Y-82425000D01*
X145404721Y-81405000D02*
X145730279Y-81405000D01*
X145404721Y-87505000D02*
X145730279Y-87505000D01*
X145404721Y-86485000D02*
X145730279Y-86485000D01*
D10*
X141700000Y-79280000D02*
X141700000Y-79855000D01*
X131350000Y-79280000D02*
X131350000Y-79955000D01*
X131350000Y-89630000D02*
X131350000Y-88955000D01*
X141700000Y-89630000D02*
X141700000Y-88955000D01*
X141700000Y-79280000D02*
X141025000Y-79280000D01*
X141700000Y-89630000D02*
X141025000Y-89630000D01*
X131350000Y-89630000D02*
X132025000Y-89630000D01*
X131350000Y-79280000D02*
X132025000Y-79280000D01*
X141700000Y-79855000D02*
X142975000Y-79855000D01*
M02*
