G04 #@! TF.GenerationSoftware,KiCad,Pcbnew,5.1.6-c6e7f7d~86~ubuntu20.04.1*
G04 #@! TF.CreationDate,2020-05-29T14:13:17+02:00*
G04 #@! TF.ProjectId,atari-usb,61746172-692d-4757-9362-2e6b69636164,rev?*
G04 #@! TF.SameCoordinates,Original*
G04 #@! TF.FileFunction,Copper,L3,Inr*
G04 #@! TF.FilePolarity,Positive*
%FSLAX46Y46*%
G04 Gerber Fmt 4.6, Leading zero omitted, Abs format (unit mm)*
G04 Created by KiCad (PCBNEW 5.1.6-c6e7f7d~86~ubuntu20.04.1) date 2020-05-29 14:13:17*
%MOMM*%
%LPD*%
G01*
G04 APERTURE LIST*
G04 #@! TA.AperFunction,ViaPad*
%ADD10O,3.500000X1.900000*%
G04 #@! TD*
G04 #@! TA.AperFunction,ViaPad*
%ADD11C,0.800000*%
G04 #@! TD*
G04 #@! TA.AperFunction,Conductor*
%ADD12C,0.254000*%
G04 #@! TD*
G04 APERTURE END LIST*
D10*
X149310000Y-90155000D03*
X149310000Y-78755000D03*
D11*
X149225000Y-85090000D03*
X149225000Y-83820000D03*
X148336000Y-84455000D03*
X140462000Y-82550000D03*
X126619000Y-85852000D03*
X128905000Y-92075000D03*
X129794000Y-76708000D03*
X132715012Y-80645000D03*
X139192000Y-82550000D03*
X130810000Y-89916000D03*
X146431000Y-89916000D03*
X149352000Y-80645000D03*
X134620000Y-88646000D03*
X138303000Y-88646000D03*
X126619000Y-83185000D03*
X133604000Y-76708000D03*
X144018000Y-76835000D03*
X143129000Y-76835000D03*
X144780000Y-92075000D03*
X130556000Y-90932000D03*
X143891000Y-79375000D03*
X140589000Y-88519000D03*
X134747000Y-80645000D03*
X129540000Y-89916000D03*
X129474998Y-88519000D03*
X133735653Y-80649653D03*
X127762000Y-85852000D03*
X128905000Y-85852000D03*
X128905000Y-83185000D03*
X128524000Y-77851000D03*
X132461000Y-82677000D03*
X134747000Y-86233000D03*
X139207997Y-86868012D03*
X132461000Y-86233000D03*
X143383000Y-89281000D03*
X140308961Y-86882423D03*
X143637000Y-88138000D03*
X138430000Y-80645000D03*
D12*
G36*
X129424058Y-76015887D02*
G01*
X129296141Y-76101358D01*
X129187358Y-76210141D01*
X129101887Y-76338058D01*
X129043013Y-76480191D01*
X129013000Y-76631078D01*
X129013000Y-76784922D01*
X129043013Y-76935809D01*
X129101887Y-77077942D01*
X129187358Y-77205859D01*
X129296141Y-77314642D01*
X129424058Y-77400113D01*
X129566191Y-77458987D01*
X129717078Y-77489000D01*
X129870922Y-77489000D01*
X130021809Y-77458987D01*
X130163942Y-77400113D01*
X130291859Y-77314642D01*
X130400642Y-77205859D01*
X130486113Y-77077942D01*
X130544987Y-76935809D01*
X130575000Y-76784922D01*
X130575000Y-76631078D01*
X130544987Y-76480191D01*
X130486113Y-76338058D01*
X130400642Y-76210141D01*
X130291859Y-76101358D01*
X130163942Y-76015887D01*
X130055576Y-75971000D01*
X150729146Y-75971000D01*
X150990442Y-75996620D01*
X151222693Y-76066741D01*
X151436897Y-76180636D01*
X151624898Y-76333966D01*
X151779537Y-76520892D01*
X151894925Y-76734297D01*
X151966664Y-76966050D01*
X151994000Y-77226133D01*
X151994001Y-91674136D01*
X151968380Y-91935442D01*
X151898260Y-92167692D01*
X151784368Y-92381891D01*
X151631036Y-92569896D01*
X151444109Y-92724536D01*
X151230702Y-92839925D01*
X150998951Y-92911664D01*
X150738867Y-92939000D01*
X122326000Y-92939000D01*
X122326000Y-91998078D01*
X128124000Y-91998078D01*
X128124000Y-92151922D01*
X128154013Y-92302809D01*
X128212887Y-92444942D01*
X128298358Y-92572859D01*
X128407141Y-92681642D01*
X128535058Y-92767113D01*
X128677191Y-92825987D01*
X128828078Y-92856000D01*
X128981922Y-92856000D01*
X129132809Y-92825987D01*
X129274942Y-92767113D01*
X129402859Y-92681642D01*
X129511642Y-92572859D01*
X129597113Y-92444942D01*
X129655987Y-92302809D01*
X129686000Y-92151922D01*
X129686000Y-91998078D01*
X129655987Y-91847191D01*
X129597113Y-91705058D01*
X129511642Y-91577141D01*
X129402859Y-91468358D01*
X129274942Y-91382887D01*
X129132809Y-91324013D01*
X128981922Y-91294000D01*
X128828078Y-91294000D01*
X128677191Y-91324013D01*
X128535058Y-91382887D01*
X128407141Y-91468358D01*
X128298358Y-91577141D01*
X128212887Y-91705058D01*
X128154013Y-91847191D01*
X128124000Y-91998078D01*
X122326000Y-91998078D01*
X122326000Y-88442078D01*
X128693998Y-88442078D01*
X128693998Y-88595922D01*
X128724011Y-88746809D01*
X128782885Y-88888942D01*
X128868356Y-89016859D01*
X128977139Y-89125642D01*
X129105056Y-89211113D01*
X129156984Y-89232623D01*
X129042141Y-89309358D01*
X128933358Y-89418141D01*
X128847887Y-89546058D01*
X128789013Y-89688191D01*
X128759000Y-89839078D01*
X128759000Y-89992922D01*
X128789013Y-90143809D01*
X128847887Y-90285942D01*
X128933358Y-90413859D01*
X129042141Y-90522642D01*
X129170058Y-90608113D01*
X129312191Y-90666987D01*
X129463078Y-90697000D01*
X129616922Y-90697000D01*
X129767809Y-90666987D01*
X129909942Y-90608113D01*
X130037859Y-90522642D01*
X130146642Y-90413859D01*
X130175000Y-90371418D01*
X130203358Y-90413859D01*
X130312141Y-90522642D01*
X130440058Y-90608113D01*
X130582191Y-90666987D01*
X130733078Y-90697000D01*
X130886922Y-90697000D01*
X131037809Y-90666987D01*
X131179942Y-90608113D01*
X131307859Y-90522642D01*
X131416642Y-90413859D01*
X131502113Y-90285942D01*
X131560987Y-90143809D01*
X131591000Y-89992922D01*
X131591000Y-89839078D01*
X131560987Y-89688191D01*
X131502113Y-89546058D01*
X131416642Y-89418141D01*
X131307859Y-89309358D01*
X131179942Y-89223887D01*
X131037809Y-89165013D01*
X130886922Y-89135000D01*
X130733078Y-89135000D01*
X130582191Y-89165013D01*
X130440058Y-89223887D01*
X130312141Y-89309358D01*
X130203358Y-89418141D01*
X130175000Y-89460582D01*
X130146642Y-89418141D01*
X130037859Y-89309358D01*
X129909942Y-89223887D01*
X129858014Y-89202377D01*
X129972857Y-89125642D01*
X130081640Y-89016859D01*
X130167111Y-88888942D01*
X130225985Y-88746809D01*
X130255998Y-88595922D01*
X130255998Y-88569078D01*
X133839000Y-88569078D01*
X133839000Y-88722922D01*
X133869013Y-88873809D01*
X133927887Y-89015942D01*
X134013358Y-89143859D01*
X134122141Y-89252642D01*
X134250058Y-89338113D01*
X134392191Y-89396987D01*
X134543078Y-89427000D01*
X134696922Y-89427000D01*
X134847809Y-89396987D01*
X134989942Y-89338113D01*
X135117859Y-89252642D01*
X135226642Y-89143859D01*
X135312113Y-89015942D01*
X135370987Y-88873809D01*
X135401000Y-88722922D01*
X135401000Y-88569078D01*
X137522000Y-88569078D01*
X137522000Y-88722922D01*
X137552013Y-88873809D01*
X137610887Y-89015942D01*
X137696358Y-89143859D01*
X137805141Y-89252642D01*
X137933058Y-89338113D01*
X138075191Y-89396987D01*
X138226078Y-89427000D01*
X138379922Y-89427000D01*
X138530809Y-89396987D01*
X138672942Y-89338113D01*
X138800859Y-89252642D01*
X138909642Y-89143859D01*
X138995113Y-89015942D01*
X139053987Y-88873809D01*
X139084000Y-88722922D01*
X139084000Y-88569078D01*
X139058739Y-88442078D01*
X139808000Y-88442078D01*
X139808000Y-88595922D01*
X139838013Y-88746809D01*
X139896887Y-88888942D01*
X139982358Y-89016859D01*
X140091141Y-89125642D01*
X140219058Y-89211113D01*
X140361191Y-89269987D01*
X140512078Y-89300000D01*
X140665922Y-89300000D01*
X140816809Y-89269987D01*
X140958942Y-89211113D01*
X140969470Y-89204078D01*
X142602000Y-89204078D01*
X142602000Y-89357922D01*
X142632013Y-89508809D01*
X142690887Y-89650942D01*
X142776358Y-89778859D01*
X142885141Y-89887642D01*
X143013058Y-89973113D01*
X143155191Y-90031987D01*
X143306078Y-90062000D01*
X143459922Y-90062000D01*
X143610809Y-90031987D01*
X143752942Y-89973113D01*
X143880859Y-89887642D01*
X143929423Y-89839078D01*
X145650000Y-89839078D01*
X145650000Y-89992922D01*
X145680013Y-90143809D01*
X145738887Y-90285942D01*
X145824358Y-90413859D01*
X145933141Y-90522642D01*
X146061058Y-90608113D01*
X146203191Y-90666987D01*
X146354078Y-90697000D01*
X146507922Y-90697000D01*
X146658809Y-90666987D01*
X146800942Y-90608113D01*
X146928859Y-90522642D01*
X147037642Y-90413859D01*
X147123113Y-90285942D01*
X147173480Y-90164345D01*
X147198259Y-90415922D01*
X147274367Y-90666816D01*
X147397959Y-90898042D01*
X147564287Y-91100713D01*
X147766958Y-91267041D01*
X147998184Y-91390633D01*
X148249078Y-91466741D01*
X148444615Y-91486000D01*
X150175385Y-91486000D01*
X150370922Y-91466741D01*
X150621816Y-91390633D01*
X150853042Y-91267041D01*
X151055713Y-91100713D01*
X151222041Y-90898042D01*
X151345633Y-90666816D01*
X151421741Y-90415922D01*
X151447440Y-90155000D01*
X151421741Y-89894078D01*
X151345633Y-89643184D01*
X151222041Y-89411958D01*
X151055713Y-89209287D01*
X150853042Y-89042959D01*
X150621816Y-88919367D01*
X150370922Y-88843259D01*
X150175385Y-88824000D01*
X148444615Y-88824000D01*
X148249078Y-88843259D01*
X147998184Y-88919367D01*
X147766958Y-89042959D01*
X147564287Y-89209287D01*
X147397959Y-89411958D01*
X147274367Y-89643184D01*
X147212000Y-89848780D01*
X147212000Y-89839078D01*
X147181987Y-89688191D01*
X147123113Y-89546058D01*
X147037642Y-89418141D01*
X146928859Y-89309358D01*
X146800942Y-89223887D01*
X146658809Y-89165013D01*
X146507922Y-89135000D01*
X146354078Y-89135000D01*
X146203191Y-89165013D01*
X146061058Y-89223887D01*
X145933141Y-89309358D01*
X145824358Y-89418141D01*
X145738887Y-89546058D01*
X145680013Y-89688191D01*
X145650000Y-89839078D01*
X143929423Y-89839078D01*
X143989642Y-89778859D01*
X144075113Y-89650942D01*
X144133987Y-89508809D01*
X144164000Y-89357922D01*
X144164000Y-89204078D01*
X144133987Y-89053191D01*
X144075113Y-88911058D01*
X144016680Y-88823606D01*
X144134859Y-88744642D01*
X144243642Y-88635859D01*
X144329113Y-88507942D01*
X144387987Y-88365809D01*
X144418000Y-88214922D01*
X144418000Y-88061078D01*
X144387987Y-87910191D01*
X144329113Y-87768058D01*
X144243642Y-87640141D01*
X144134859Y-87531358D01*
X144006942Y-87445887D01*
X143864809Y-87387013D01*
X143713922Y-87357000D01*
X143560078Y-87357000D01*
X143409191Y-87387013D01*
X143267058Y-87445887D01*
X143139141Y-87531358D01*
X143030358Y-87640141D01*
X142944887Y-87768058D01*
X142886013Y-87910191D01*
X142856000Y-88061078D01*
X142856000Y-88214922D01*
X142886013Y-88365809D01*
X142944887Y-88507942D01*
X143003320Y-88595394D01*
X142885141Y-88674358D01*
X142776358Y-88783141D01*
X142690887Y-88911058D01*
X142632013Y-89053191D01*
X142602000Y-89204078D01*
X140969470Y-89204078D01*
X141086859Y-89125642D01*
X141195642Y-89016859D01*
X141281113Y-88888942D01*
X141339987Y-88746809D01*
X141370000Y-88595922D01*
X141370000Y-88442078D01*
X141339987Y-88291191D01*
X141281113Y-88149058D01*
X141195642Y-88021141D01*
X141086859Y-87912358D01*
X140958942Y-87826887D01*
X140816809Y-87768013D01*
X140665922Y-87738000D01*
X140512078Y-87738000D01*
X140361191Y-87768013D01*
X140219058Y-87826887D01*
X140091141Y-87912358D01*
X139982358Y-88021141D01*
X139896887Y-88149058D01*
X139838013Y-88291191D01*
X139808000Y-88442078D01*
X139058739Y-88442078D01*
X139053987Y-88418191D01*
X138995113Y-88276058D01*
X138909642Y-88148141D01*
X138800859Y-88039358D01*
X138672942Y-87953887D01*
X138530809Y-87895013D01*
X138379922Y-87865000D01*
X138226078Y-87865000D01*
X138075191Y-87895013D01*
X137933058Y-87953887D01*
X137805141Y-88039358D01*
X137696358Y-88148141D01*
X137610887Y-88276058D01*
X137552013Y-88418191D01*
X137522000Y-88569078D01*
X135401000Y-88569078D01*
X135370987Y-88418191D01*
X135312113Y-88276058D01*
X135226642Y-88148141D01*
X135117859Y-88039358D01*
X134989942Y-87953887D01*
X134847809Y-87895013D01*
X134696922Y-87865000D01*
X134543078Y-87865000D01*
X134392191Y-87895013D01*
X134250058Y-87953887D01*
X134122141Y-88039358D01*
X134013358Y-88148141D01*
X133927887Y-88276058D01*
X133869013Y-88418191D01*
X133839000Y-88569078D01*
X130255998Y-88569078D01*
X130255998Y-88442078D01*
X130225985Y-88291191D01*
X130167111Y-88149058D01*
X130081640Y-88021141D01*
X129972857Y-87912358D01*
X129844940Y-87826887D01*
X129702807Y-87768013D01*
X129551920Y-87738000D01*
X129398076Y-87738000D01*
X129247189Y-87768013D01*
X129105056Y-87826887D01*
X128977139Y-87912358D01*
X128868356Y-88021141D01*
X128782885Y-88149058D01*
X128724011Y-88291191D01*
X128693998Y-88442078D01*
X122326000Y-88442078D01*
X122326000Y-85775078D01*
X125838000Y-85775078D01*
X125838000Y-85928922D01*
X125868013Y-86079809D01*
X125926887Y-86221942D01*
X126012358Y-86349859D01*
X126121141Y-86458642D01*
X126249058Y-86544113D01*
X126391191Y-86602987D01*
X126542078Y-86633000D01*
X126695922Y-86633000D01*
X126846809Y-86602987D01*
X126988942Y-86544113D01*
X127116859Y-86458642D01*
X127190500Y-86385001D01*
X127264141Y-86458642D01*
X127392058Y-86544113D01*
X127534191Y-86602987D01*
X127685078Y-86633000D01*
X127838922Y-86633000D01*
X127989809Y-86602987D01*
X128131942Y-86544113D01*
X128259859Y-86458642D01*
X128333500Y-86385001D01*
X128407141Y-86458642D01*
X128535058Y-86544113D01*
X128677191Y-86602987D01*
X128828078Y-86633000D01*
X128981922Y-86633000D01*
X129132809Y-86602987D01*
X129274942Y-86544113D01*
X129402859Y-86458642D01*
X129511642Y-86349859D01*
X129597113Y-86221942D01*
X129624395Y-86156078D01*
X131680000Y-86156078D01*
X131680000Y-86309922D01*
X131710013Y-86460809D01*
X131768887Y-86602942D01*
X131854358Y-86730859D01*
X131963141Y-86839642D01*
X132091058Y-86925113D01*
X132233191Y-86983987D01*
X132384078Y-87014000D01*
X132537922Y-87014000D01*
X132688809Y-86983987D01*
X132830942Y-86925113D01*
X132958859Y-86839642D01*
X133067642Y-86730859D01*
X133153113Y-86602942D01*
X133211987Y-86460809D01*
X133242000Y-86309922D01*
X133242000Y-86156078D01*
X133966000Y-86156078D01*
X133966000Y-86309922D01*
X133996013Y-86460809D01*
X134054887Y-86602942D01*
X134140358Y-86730859D01*
X134249141Y-86839642D01*
X134377058Y-86925113D01*
X134519191Y-86983987D01*
X134670078Y-87014000D01*
X134823922Y-87014000D01*
X134974809Y-86983987D01*
X135116942Y-86925113D01*
X135244859Y-86839642D01*
X135293411Y-86791090D01*
X138426997Y-86791090D01*
X138426997Y-86944934D01*
X138457010Y-87095821D01*
X138515884Y-87237954D01*
X138601355Y-87365871D01*
X138710138Y-87474654D01*
X138838055Y-87560125D01*
X138980188Y-87618999D01*
X139131075Y-87649012D01*
X139284919Y-87649012D01*
X139435806Y-87618999D01*
X139577939Y-87560125D01*
X139705856Y-87474654D01*
X139751274Y-87429237D01*
X139811102Y-87489065D01*
X139939019Y-87574536D01*
X140081152Y-87633410D01*
X140232039Y-87663423D01*
X140385883Y-87663423D01*
X140536770Y-87633410D01*
X140678903Y-87574536D01*
X140806820Y-87489065D01*
X140915603Y-87380282D01*
X141001074Y-87252365D01*
X141059948Y-87110232D01*
X141089961Y-86959345D01*
X141089961Y-86805501D01*
X141059948Y-86654614D01*
X141001074Y-86512481D01*
X140915603Y-86384564D01*
X140806820Y-86275781D01*
X140678903Y-86190310D01*
X140536770Y-86131436D01*
X140385883Y-86101423D01*
X140232039Y-86101423D01*
X140081152Y-86131436D01*
X139939019Y-86190310D01*
X139811102Y-86275781D01*
X139765685Y-86321199D01*
X139705856Y-86261370D01*
X139577939Y-86175899D01*
X139435806Y-86117025D01*
X139284919Y-86087012D01*
X139131075Y-86087012D01*
X138980188Y-86117025D01*
X138838055Y-86175899D01*
X138710138Y-86261370D01*
X138601355Y-86370153D01*
X138515884Y-86498070D01*
X138457010Y-86640203D01*
X138426997Y-86791090D01*
X135293411Y-86791090D01*
X135353642Y-86730859D01*
X135439113Y-86602942D01*
X135497987Y-86460809D01*
X135528000Y-86309922D01*
X135528000Y-86156078D01*
X135497987Y-86005191D01*
X135439113Y-85863058D01*
X135353642Y-85735141D01*
X135244859Y-85626358D01*
X135116942Y-85540887D01*
X134974809Y-85482013D01*
X134823922Y-85452000D01*
X134670078Y-85452000D01*
X134519191Y-85482013D01*
X134377058Y-85540887D01*
X134249141Y-85626358D01*
X134140358Y-85735141D01*
X134054887Y-85863058D01*
X133996013Y-86005191D01*
X133966000Y-86156078D01*
X133242000Y-86156078D01*
X133211987Y-86005191D01*
X133153113Y-85863058D01*
X133067642Y-85735141D01*
X132958859Y-85626358D01*
X132830942Y-85540887D01*
X132688809Y-85482013D01*
X132537922Y-85452000D01*
X132384078Y-85452000D01*
X132233191Y-85482013D01*
X132091058Y-85540887D01*
X131963141Y-85626358D01*
X131854358Y-85735141D01*
X131768887Y-85863058D01*
X131710013Y-86005191D01*
X131680000Y-86156078D01*
X129624395Y-86156078D01*
X129655987Y-86079809D01*
X129686000Y-85928922D01*
X129686000Y-85775078D01*
X129655987Y-85624191D01*
X129597113Y-85482058D01*
X129511642Y-85354141D01*
X129402859Y-85245358D01*
X129274942Y-85159887D01*
X129132809Y-85101013D01*
X128981922Y-85071000D01*
X128828078Y-85071000D01*
X128677191Y-85101013D01*
X128535058Y-85159887D01*
X128407141Y-85245358D01*
X128333500Y-85318999D01*
X128259859Y-85245358D01*
X128131942Y-85159887D01*
X127989809Y-85101013D01*
X127838922Y-85071000D01*
X127685078Y-85071000D01*
X127534191Y-85101013D01*
X127392058Y-85159887D01*
X127264141Y-85245358D01*
X127190500Y-85318999D01*
X127116859Y-85245358D01*
X126988942Y-85159887D01*
X126846809Y-85101013D01*
X126695922Y-85071000D01*
X126542078Y-85071000D01*
X126391191Y-85101013D01*
X126249058Y-85159887D01*
X126121141Y-85245358D01*
X126012358Y-85354141D01*
X125926887Y-85482058D01*
X125868013Y-85624191D01*
X125838000Y-85775078D01*
X122326000Y-85775078D01*
X122326000Y-83108078D01*
X128124000Y-83108078D01*
X128124000Y-83261922D01*
X128154013Y-83412809D01*
X128212887Y-83554942D01*
X128298358Y-83682859D01*
X128407141Y-83791642D01*
X128535058Y-83877113D01*
X128677191Y-83935987D01*
X128828078Y-83966000D01*
X128981922Y-83966000D01*
X129132809Y-83935987D01*
X129274942Y-83877113D01*
X129402859Y-83791642D01*
X129511642Y-83682859D01*
X129597113Y-83554942D01*
X129655987Y-83412809D01*
X129686000Y-83261922D01*
X129686000Y-83108078D01*
X129655987Y-82957191D01*
X129597113Y-82815058D01*
X129511642Y-82687141D01*
X129424579Y-82600078D01*
X131680000Y-82600078D01*
X131680000Y-82753922D01*
X131710013Y-82904809D01*
X131768887Y-83046942D01*
X131854358Y-83174859D01*
X131963141Y-83283642D01*
X132091058Y-83369113D01*
X132233191Y-83427987D01*
X132384078Y-83458000D01*
X132537922Y-83458000D01*
X132688809Y-83427987D01*
X132830942Y-83369113D01*
X132958859Y-83283642D01*
X133067642Y-83174859D01*
X133153113Y-83046942D01*
X133211987Y-82904809D01*
X133242000Y-82753922D01*
X133242000Y-82600078D01*
X133216739Y-82473078D01*
X138411000Y-82473078D01*
X138411000Y-82626922D01*
X138441013Y-82777809D01*
X138499887Y-82919942D01*
X138585358Y-83047859D01*
X138694141Y-83156642D01*
X138822058Y-83242113D01*
X138964191Y-83300987D01*
X139115078Y-83331000D01*
X139268922Y-83331000D01*
X139419809Y-83300987D01*
X139561942Y-83242113D01*
X139689859Y-83156642D01*
X139798642Y-83047859D01*
X139827000Y-83005418D01*
X139855358Y-83047859D01*
X139964141Y-83156642D01*
X140092058Y-83242113D01*
X140234191Y-83300987D01*
X140385078Y-83331000D01*
X140538922Y-83331000D01*
X140689809Y-83300987D01*
X140831942Y-83242113D01*
X140959859Y-83156642D01*
X141068642Y-83047859D01*
X141154113Y-82919942D01*
X141212987Y-82777809D01*
X141243000Y-82626922D01*
X141243000Y-82473078D01*
X141212987Y-82322191D01*
X141154113Y-82180058D01*
X141068642Y-82052141D01*
X140959859Y-81943358D01*
X140831942Y-81857887D01*
X140689809Y-81799013D01*
X140538922Y-81769000D01*
X140385078Y-81769000D01*
X140234191Y-81799013D01*
X140092058Y-81857887D01*
X139964141Y-81943358D01*
X139855358Y-82052141D01*
X139827000Y-82094582D01*
X139798642Y-82052141D01*
X139689859Y-81943358D01*
X139561942Y-81857887D01*
X139419809Y-81799013D01*
X139268922Y-81769000D01*
X139115078Y-81769000D01*
X138964191Y-81799013D01*
X138822058Y-81857887D01*
X138694141Y-81943358D01*
X138585358Y-82052141D01*
X138499887Y-82180058D01*
X138441013Y-82322191D01*
X138411000Y-82473078D01*
X133216739Y-82473078D01*
X133211987Y-82449191D01*
X133153113Y-82307058D01*
X133067642Y-82179141D01*
X132958859Y-82070358D01*
X132830942Y-81984887D01*
X132688809Y-81926013D01*
X132537922Y-81896000D01*
X132384078Y-81896000D01*
X132233191Y-81926013D01*
X132091058Y-81984887D01*
X131963141Y-82070358D01*
X131854358Y-82179141D01*
X131768887Y-82307058D01*
X131710013Y-82449191D01*
X131680000Y-82600078D01*
X129424579Y-82600078D01*
X129402859Y-82578358D01*
X129274942Y-82492887D01*
X129132809Y-82434013D01*
X128981922Y-82404000D01*
X128828078Y-82404000D01*
X128677191Y-82434013D01*
X128535058Y-82492887D01*
X128407141Y-82578358D01*
X128298358Y-82687141D01*
X128212887Y-82815058D01*
X128154013Y-82957191D01*
X128124000Y-83108078D01*
X122326000Y-83108078D01*
X122326000Y-80568078D01*
X131934012Y-80568078D01*
X131934012Y-80721922D01*
X131964025Y-80872809D01*
X132022899Y-81014942D01*
X132108370Y-81142859D01*
X132217153Y-81251642D01*
X132345070Y-81337113D01*
X132487203Y-81395987D01*
X132638090Y-81426000D01*
X132791934Y-81426000D01*
X132942821Y-81395987D01*
X133084954Y-81337113D01*
X133212871Y-81251642D01*
X133223006Y-81241507D01*
X133237794Y-81256295D01*
X133365711Y-81341766D01*
X133507844Y-81400640D01*
X133658731Y-81430653D01*
X133812575Y-81430653D01*
X133963462Y-81400640D01*
X134105595Y-81341766D01*
X134233512Y-81256295D01*
X134243653Y-81246154D01*
X134249141Y-81251642D01*
X134377058Y-81337113D01*
X134519191Y-81395987D01*
X134670078Y-81426000D01*
X134823922Y-81426000D01*
X134974809Y-81395987D01*
X135116942Y-81337113D01*
X135244859Y-81251642D01*
X135353642Y-81142859D01*
X135439113Y-81014942D01*
X135497987Y-80872809D01*
X135528000Y-80721922D01*
X135528000Y-80568078D01*
X137649000Y-80568078D01*
X137649000Y-80721922D01*
X137679013Y-80872809D01*
X137737887Y-81014942D01*
X137823358Y-81142859D01*
X137932141Y-81251642D01*
X138060058Y-81337113D01*
X138202191Y-81395987D01*
X138353078Y-81426000D01*
X138506922Y-81426000D01*
X138657809Y-81395987D01*
X138799942Y-81337113D01*
X138927859Y-81251642D01*
X139036642Y-81142859D01*
X139122113Y-81014942D01*
X139180987Y-80872809D01*
X139211000Y-80721922D01*
X139211000Y-80568078D01*
X139180987Y-80417191D01*
X139122113Y-80275058D01*
X139036642Y-80147141D01*
X138927859Y-80038358D01*
X138799942Y-79952887D01*
X138657809Y-79894013D01*
X138506922Y-79864000D01*
X138353078Y-79864000D01*
X138202191Y-79894013D01*
X138060058Y-79952887D01*
X137932141Y-80038358D01*
X137823358Y-80147141D01*
X137737887Y-80275058D01*
X137679013Y-80417191D01*
X137649000Y-80568078D01*
X135528000Y-80568078D01*
X135497987Y-80417191D01*
X135439113Y-80275058D01*
X135353642Y-80147141D01*
X135244859Y-80038358D01*
X135116942Y-79952887D01*
X134974809Y-79894013D01*
X134823922Y-79864000D01*
X134670078Y-79864000D01*
X134519191Y-79894013D01*
X134377058Y-79952887D01*
X134249141Y-80038358D01*
X134239000Y-80048499D01*
X134233512Y-80043011D01*
X134105595Y-79957540D01*
X133963462Y-79898666D01*
X133812575Y-79868653D01*
X133658731Y-79868653D01*
X133507844Y-79898666D01*
X133365711Y-79957540D01*
X133237794Y-80043011D01*
X133227659Y-80053146D01*
X133212871Y-80038358D01*
X133084954Y-79952887D01*
X132942821Y-79894013D01*
X132791934Y-79864000D01*
X132638090Y-79864000D01*
X132487203Y-79894013D01*
X132345070Y-79952887D01*
X132217153Y-80038358D01*
X132108370Y-80147141D01*
X132022899Y-80275058D01*
X131964025Y-80417191D01*
X131934012Y-80568078D01*
X122326000Y-80568078D01*
X122326000Y-78755000D01*
X147172560Y-78755000D01*
X147198259Y-79015922D01*
X147274367Y-79266816D01*
X147397959Y-79498042D01*
X147564287Y-79700713D01*
X147766958Y-79867041D01*
X147998184Y-79990633D01*
X148249078Y-80066741D01*
X148444615Y-80086000D01*
X148806499Y-80086000D01*
X148745358Y-80147141D01*
X148659887Y-80275058D01*
X148601013Y-80417191D01*
X148571000Y-80568078D01*
X148571000Y-80721922D01*
X148601013Y-80872809D01*
X148659887Y-81014942D01*
X148745358Y-81142859D01*
X148854141Y-81251642D01*
X148932185Y-81303789D01*
X148869006Y-81329958D01*
X148716522Y-81431845D01*
X148586845Y-81561522D01*
X148484958Y-81714006D01*
X148414778Y-81883437D01*
X148379000Y-82063304D01*
X148379000Y-82246696D01*
X148414778Y-82426563D01*
X148484958Y-82595994D01*
X148586845Y-82748478D01*
X148716522Y-82878155D01*
X148869006Y-82980042D01*
X149038437Y-83050222D01*
X149065049Y-83055515D01*
X148997191Y-83069013D01*
X148855058Y-83127887D01*
X148727141Y-83213358D01*
X148618358Y-83322141D01*
X148532887Y-83450058D01*
X148474013Y-83592191D01*
X148456035Y-83682576D01*
X148412922Y-83674000D01*
X148259078Y-83674000D01*
X148108191Y-83704013D01*
X147966058Y-83762887D01*
X147838141Y-83848358D01*
X147729358Y-83957141D01*
X147643887Y-84085058D01*
X147585013Y-84227191D01*
X147555000Y-84378078D01*
X147555000Y-84531922D01*
X147585013Y-84682809D01*
X147643887Y-84824942D01*
X147729358Y-84952859D01*
X147838141Y-85061642D01*
X147966058Y-85147113D01*
X148108191Y-85205987D01*
X148259078Y-85236000D01*
X148412922Y-85236000D01*
X148456035Y-85227424D01*
X148474013Y-85317809D01*
X148532887Y-85459942D01*
X148618358Y-85587859D01*
X148727141Y-85696642D01*
X148855058Y-85782113D01*
X148997191Y-85840987D01*
X149065049Y-85854485D01*
X149038437Y-85859778D01*
X148869006Y-85929958D01*
X148716522Y-86031845D01*
X148586845Y-86161522D01*
X148484958Y-86314006D01*
X148414778Y-86483437D01*
X148379000Y-86663304D01*
X148379000Y-86846696D01*
X148414778Y-87026563D01*
X148484958Y-87195994D01*
X148586845Y-87348478D01*
X148716522Y-87478155D01*
X148869006Y-87580042D01*
X149038437Y-87650222D01*
X149218304Y-87686000D01*
X149401696Y-87686000D01*
X149581563Y-87650222D01*
X149750994Y-87580042D01*
X149903478Y-87478155D01*
X150033155Y-87348478D01*
X150135042Y-87195994D01*
X150205222Y-87026563D01*
X150241000Y-86846696D01*
X150241000Y-86663304D01*
X150205222Y-86483437D01*
X150135042Y-86314006D01*
X150033155Y-86161522D01*
X149903478Y-86031845D01*
X149750994Y-85929958D01*
X149581563Y-85859778D01*
X149463932Y-85836380D01*
X149594942Y-85782113D01*
X149722859Y-85696642D01*
X149831642Y-85587859D01*
X149917113Y-85459942D01*
X149975987Y-85317809D01*
X150006000Y-85166922D01*
X150006000Y-85013078D01*
X149975987Y-84862191D01*
X149917113Y-84720058D01*
X149831642Y-84592141D01*
X149722859Y-84483358D01*
X149680418Y-84455000D01*
X149722859Y-84426642D01*
X149831642Y-84317859D01*
X149917113Y-84189942D01*
X149975987Y-84047809D01*
X150006000Y-83896922D01*
X150006000Y-83743078D01*
X149975987Y-83592191D01*
X149917113Y-83450058D01*
X149831642Y-83322141D01*
X149722859Y-83213358D01*
X149594942Y-83127887D01*
X149463932Y-83073620D01*
X149581563Y-83050222D01*
X149750994Y-82980042D01*
X149903478Y-82878155D01*
X150033155Y-82748478D01*
X150135042Y-82595994D01*
X150205222Y-82426563D01*
X150241000Y-82246696D01*
X150241000Y-82063304D01*
X150205222Y-81883437D01*
X150135042Y-81714006D01*
X150033155Y-81561522D01*
X149903478Y-81431845D01*
X149750994Y-81329958D01*
X149739670Y-81325268D01*
X149849859Y-81251642D01*
X149958642Y-81142859D01*
X150044113Y-81014942D01*
X150102987Y-80872809D01*
X150133000Y-80721922D01*
X150133000Y-80568078D01*
X150102987Y-80417191D01*
X150044113Y-80275058D01*
X149958642Y-80147141D01*
X149897501Y-80086000D01*
X150175385Y-80086000D01*
X150370922Y-80066741D01*
X150621816Y-79990633D01*
X150853042Y-79867041D01*
X151055713Y-79700713D01*
X151222041Y-79498042D01*
X151345633Y-79266816D01*
X151421741Y-79015922D01*
X151447440Y-78755000D01*
X151421741Y-78494078D01*
X151345633Y-78243184D01*
X151222041Y-78011958D01*
X151055713Y-77809287D01*
X150853042Y-77642959D01*
X150621816Y-77519367D01*
X150370922Y-77443259D01*
X150175385Y-77424000D01*
X148444615Y-77424000D01*
X148249078Y-77443259D01*
X147998184Y-77519367D01*
X147766958Y-77642959D01*
X147564287Y-77809287D01*
X147397959Y-78011958D01*
X147274367Y-78243184D01*
X147198259Y-78494078D01*
X147172560Y-78755000D01*
X122326000Y-78755000D01*
X122326000Y-77774078D01*
X127743000Y-77774078D01*
X127743000Y-77927922D01*
X127773013Y-78078809D01*
X127831887Y-78220942D01*
X127917358Y-78348859D01*
X128026141Y-78457642D01*
X128154058Y-78543113D01*
X128296191Y-78601987D01*
X128447078Y-78632000D01*
X128600922Y-78632000D01*
X128751809Y-78601987D01*
X128893942Y-78543113D01*
X129021859Y-78457642D01*
X129130642Y-78348859D01*
X129216113Y-78220942D01*
X129274987Y-78078809D01*
X129305000Y-77927922D01*
X129305000Y-77774078D01*
X129274987Y-77623191D01*
X129216113Y-77481058D01*
X129130642Y-77353141D01*
X129021859Y-77244358D01*
X128893942Y-77158887D01*
X128751809Y-77100013D01*
X128600922Y-77070000D01*
X128447078Y-77070000D01*
X128296191Y-77100013D01*
X128154058Y-77158887D01*
X128026141Y-77244358D01*
X127917358Y-77353141D01*
X127831887Y-77481058D01*
X127773013Y-77623191D01*
X127743000Y-77774078D01*
X122326000Y-77774078D01*
X122326000Y-75971000D01*
X129532424Y-75971000D01*
X129424058Y-76015887D01*
G37*
X129424058Y-76015887D02*
X129296141Y-76101358D01*
X129187358Y-76210141D01*
X129101887Y-76338058D01*
X129043013Y-76480191D01*
X129013000Y-76631078D01*
X129013000Y-76784922D01*
X129043013Y-76935809D01*
X129101887Y-77077942D01*
X129187358Y-77205859D01*
X129296141Y-77314642D01*
X129424058Y-77400113D01*
X129566191Y-77458987D01*
X129717078Y-77489000D01*
X129870922Y-77489000D01*
X130021809Y-77458987D01*
X130163942Y-77400113D01*
X130291859Y-77314642D01*
X130400642Y-77205859D01*
X130486113Y-77077942D01*
X130544987Y-76935809D01*
X130575000Y-76784922D01*
X130575000Y-76631078D01*
X130544987Y-76480191D01*
X130486113Y-76338058D01*
X130400642Y-76210141D01*
X130291859Y-76101358D01*
X130163942Y-76015887D01*
X130055576Y-75971000D01*
X150729146Y-75971000D01*
X150990442Y-75996620D01*
X151222693Y-76066741D01*
X151436897Y-76180636D01*
X151624898Y-76333966D01*
X151779537Y-76520892D01*
X151894925Y-76734297D01*
X151966664Y-76966050D01*
X151994000Y-77226133D01*
X151994001Y-91674136D01*
X151968380Y-91935442D01*
X151898260Y-92167692D01*
X151784368Y-92381891D01*
X151631036Y-92569896D01*
X151444109Y-92724536D01*
X151230702Y-92839925D01*
X150998951Y-92911664D01*
X150738867Y-92939000D01*
X122326000Y-92939000D01*
X122326000Y-91998078D01*
X128124000Y-91998078D01*
X128124000Y-92151922D01*
X128154013Y-92302809D01*
X128212887Y-92444942D01*
X128298358Y-92572859D01*
X128407141Y-92681642D01*
X128535058Y-92767113D01*
X128677191Y-92825987D01*
X128828078Y-92856000D01*
X128981922Y-92856000D01*
X129132809Y-92825987D01*
X129274942Y-92767113D01*
X129402859Y-92681642D01*
X129511642Y-92572859D01*
X129597113Y-92444942D01*
X129655987Y-92302809D01*
X129686000Y-92151922D01*
X129686000Y-91998078D01*
X129655987Y-91847191D01*
X129597113Y-91705058D01*
X129511642Y-91577141D01*
X129402859Y-91468358D01*
X129274942Y-91382887D01*
X129132809Y-91324013D01*
X128981922Y-91294000D01*
X128828078Y-91294000D01*
X128677191Y-91324013D01*
X128535058Y-91382887D01*
X128407141Y-91468358D01*
X128298358Y-91577141D01*
X128212887Y-91705058D01*
X128154013Y-91847191D01*
X128124000Y-91998078D01*
X122326000Y-91998078D01*
X122326000Y-88442078D01*
X128693998Y-88442078D01*
X128693998Y-88595922D01*
X128724011Y-88746809D01*
X128782885Y-88888942D01*
X128868356Y-89016859D01*
X128977139Y-89125642D01*
X129105056Y-89211113D01*
X129156984Y-89232623D01*
X129042141Y-89309358D01*
X128933358Y-89418141D01*
X128847887Y-89546058D01*
X128789013Y-89688191D01*
X128759000Y-89839078D01*
X128759000Y-89992922D01*
X128789013Y-90143809D01*
X128847887Y-90285942D01*
X128933358Y-90413859D01*
X129042141Y-90522642D01*
X129170058Y-90608113D01*
X129312191Y-90666987D01*
X129463078Y-90697000D01*
X129616922Y-90697000D01*
X129767809Y-90666987D01*
X129909942Y-90608113D01*
X130037859Y-90522642D01*
X130146642Y-90413859D01*
X130175000Y-90371418D01*
X130203358Y-90413859D01*
X130312141Y-90522642D01*
X130440058Y-90608113D01*
X130582191Y-90666987D01*
X130733078Y-90697000D01*
X130886922Y-90697000D01*
X131037809Y-90666987D01*
X131179942Y-90608113D01*
X131307859Y-90522642D01*
X131416642Y-90413859D01*
X131502113Y-90285942D01*
X131560987Y-90143809D01*
X131591000Y-89992922D01*
X131591000Y-89839078D01*
X131560987Y-89688191D01*
X131502113Y-89546058D01*
X131416642Y-89418141D01*
X131307859Y-89309358D01*
X131179942Y-89223887D01*
X131037809Y-89165013D01*
X130886922Y-89135000D01*
X130733078Y-89135000D01*
X130582191Y-89165013D01*
X130440058Y-89223887D01*
X130312141Y-89309358D01*
X130203358Y-89418141D01*
X130175000Y-89460582D01*
X130146642Y-89418141D01*
X130037859Y-89309358D01*
X129909942Y-89223887D01*
X129858014Y-89202377D01*
X129972857Y-89125642D01*
X130081640Y-89016859D01*
X130167111Y-88888942D01*
X130225985Y-88746809D01*
X130255998Y-88595922D01*
X130255998Y-88569078D01*
X133839000Y-88569078D01*
X133839000Y-88722922D01*
X133869013Y-88873809D01*
X133927887Y-89015942D01*
X134013358Y-89143859D01*
X134122141Y-89252642D01*
X134250058Y-89338113D01*
X134392191Y-89396987D01*
X134543078Y-89427000D01*
X134696922Y-89427000D01*
X134847809Y-89396987D01*
X134989942Y-89338113D01*
X135117859Y-89252642D01*
X135226642Y-89143859D01*
X135312113Y-89015942D01*
X135370987Y-88873809D01*
X135401000Y-88722922D01*
X135401000Y-88569078D01*
X137522000Y-88569078D01*
X137522000Y-88722922D01*
X137552013Y-88873809D01*
X137610887Y-89015942D01*
X137696358Y-89143859D01*
X137805141Y-89252642D01*
X137933058Y-89338113D01*
X138075191Y-89396987D01*
X138226078Y-89427000D01*
X138379922Y-89427000D01*
X138530809Y-89396987D01*
X138672942Y-89338113D01*
X138800859Y-89252642D01*
X138909642Y-89143859D01*
X138995113Y-89015942D01*
X139053987Y-88873809D01*
X139084000Y-88722922D01*
X139084000Y-88569078D01*
X139058739Y-88442078D01*
X139808000Y-88442078D01*
X139808000Y-88595922D01*
X139838013Y-88746809D01*
X139896887Y-88888942D01*
X139982358Y-89016859D01*
X140091141Y-89125642D01*
X140219058Y-89211113D01*
X140361191Y-89269987D01*
X140512078Y-89300000D01*
X140665922Y-89300000D01*
X140816809Y-89269987D01*
X140958942Y-89211113D01*
X140969470Y-89204078D01*
X142602000Y-89204078D01*
X142602000Y-89357922D01*
X142632013Y-89508809D01*
X142690887Y-89650942D01*
X142776358Y-89778859D01*
X142885141Y-89887642D01*
X143013058Y-89973113D01*
X143155191Y-90031987D01*
X143306078Y-90062000D01*
X143459922Y-90062000D01*
X143610809Y-90031987D01*
X143752942Y-89973113D01*
X143880859Y-89887642D01*
X143929423Y-89839078D01*
X145650000Y-89839078D01*
X145650000Y-89992922D01*
X145680013Y-90143809D01*
X145738887Y-90285942D01*
X145824358Y-90413859D01*
X145933141Y-90522642D01*
X146061058Y-90608113D01*
X146203191Y-90666987D01*
X146354078Y-90697000D01*
X146507922Y-90697000D01*
X146658809Y-90666987D01*
X146800942Y-90608113D01*
X146928859Y-90522642D01*
X147037642Y-90413859D01*
X147123113Y-90285942D01*
X147173480Y-90164345D01*
X147198259Y-90415922D01*
X147274367Y-90666816D01*
X147397959Y-90898042D01*
X147564287Y-91100713D01*
X147766958Y-91267041D01*
X147998184Y-91390633D01*
X148249078Y-91466741D01*
X148444615Y-91486000D01*
X150175385Y-91486000D01*
X150370922Y-91466741D01*
X150621816Y-91390633D01*
X150853042Y-91267041D01*
X151055713Y-91100713D01*
X151222041Y-90898042D01*
X151345633Y-90666816D01*
X151421741Y-90415922D01*
X151447440Y-90155000D01*
X151421741Y-89894078D01*
X151345633Y-89643184D01*
X151222041Y-89411958D01*
X151055713Y-89209287D01*
X150853042Y-89042959D01*
X150621816Y-88919367D01*
X150370922Y-88843259D01*
X150175385Y-88824000D01*
X148444615Y-88824000D01*
X148249078Y-88843259D01*
X147998184Y-88919367D01*
X147766958Y-89042959D01*
X147564287Y-89209287D01*
X147397959Y-89411958D01*
X147274367Y-89643184D01*
X147212000Y-89848780D01*
X147212000Y-89839078D01*
X147181987Y-89688191D01*
X147123113Y-89546058D01*
X147037642Y-89418141D01*
X146928859Y-89309358D01*
X146800942Y-89223887D01*
X146658809Y-89165013D01*
X146507922Y-89135000D01*
X146354078Y-89135000D01*
X146203191Y-89165013D01*
X146061058Y-89223887D01*
X145933141Y-89309358D01*
X145824358Y-89418141D01*
X145738887Y-89546058D01*
X145680013Y-89688191D01*
X145650000Y-89839078D01*
X143929423Y-89839078D01*
X143989642Y-89778859D01*
X144075113Y-89650942D01*
X144133987Y-89508809D01*
X144164000Y-89357922D01*
X144164000Y-89204078D01*
X144133987Y-89053191D01*
X144075113Y-88911058D01*
X144016680Y-88823606D01*
X144134859Y-88744642D01*
X144243642Y-88635859D01*
X144329113Y-88507942D01*
X144387987Y-88365809D01*
X144418000Y-88214922D01*
X144418000Y-88061078D01*
X144387987Y-87910191D01*
X144329113Y-87768058D01*
X144243642Y-87640141D01*
X144134859Y-87531358D01*
X144006942Y-87445887D01*
X143864809Y-87387013D01*
X143713922Y-87357000D01*
X143560078Y-87357000D01*
X143409191Y-87387013D01*
X143267058Y-87445887D01*
X143139141Y-87531358D01*
X143030358Y-87640141D01*
X142944887Y-87768058D01*
X142886013Y-87910191D01*
X142856000Y-88061078D01*
X142856000Y-88214922D01*
X142886013Y-88365809D01*
X142944887Y-88507942D01*
X143003320Y-88595394D01*
X142885141Y-88674358D01*
X142776358Y-88783141D01*
X142690887Y-88911058D01*
X142632013Y-89053191D01*
X142602000Y-89204078D01*
X140969470Y-89204078D01*
X141086859Y-89125642D01*
X141195642Y-89016859D01*
X141281113Y-88888942D01*
X141339987Y-88746809D01*
X141370000Y-88595922D01*
X141370000Y-88442078D01*
X141339987Y-88291191D01*
X141281113Y-88149058D01*
X141195642Y-88021141D01*
X141086859Y-87912358D01*
X140958942Y-87826887D01*
X140816809Y-87768013D01*
X140665922Y-87738000D01*
X140512078Y-87738000D01*
X140361191Y-87768013D01*
X140219058Y-87826887D01*
X140091141Y-87912358D01*
X139982358Y-88021141D01*
X139896887Y-88149058D01*
X139838013Y-88291191D01*
X139808000Y-88442078D01*
X139058739Y-88442078D01*
X139053987Y-88418191D01*
X138995113Y-88276058D01*
X138909642Y-88148141D01*
X138800859Y-88039358D01*
X138672942Y-87953887D01*
X138530809Y-87895013D01*
X138379922Y-87865000D01*
X138226078Y-87865000D01*
X138075191Y-87895013D01*
X137933058Y-87953887D01*
X137805141Y-88039358D01*
X137696358Y-88148141D01*
X137610887Y-88276058D01*
X137552013Y-88418191D01*
X137522000Y-88569078D01*
X135401000Y-88569078D01*
X135370987Y-88418191D01*
X135312113Y-88276058D01*
X135226642Y-88148141D01*
X135117859Y-88039358D01*
X134989942Y-87953887D01*
X134847809Y-87895013D01*
X134696922Y-87865000D01*
X134543078Y-87865000D01*
X134392191Y-87895013D01*
X134250058Y-87953887D01*
X134122141Y-88039358D01*
X134013358Y-88148141D01*
X133927887Y-88276058D01*
X133869013Y-88418191D01*
X133839000Y-88569078D01*
X130255998Y-88569078D01*
X130255998Y-88442078D01*
X130225985Y-88291191D01*
X130167111Y-88149058D01*
X130081640Y-88021141D01*
X129972857Y-87912358D01*
X129844940Y-87826887D01*
X129702807Y-87768013D01*
X129551920Y-87738000D01*
X129398076Y-87738000D01*
X129247189Y-87768013D01*
X129105056Y-87826887D01*
X128977139Y-87912358D01*
X128868356Y-88021141D01*
X128782885Y-88149058D01*
X128724011Y-88291191D01*
X128693998Y-88442078D01*
X122326000Y-88442078D01*
X122326000Y-85775078D01*
X125838000Y-85775078D01*
X125838000Y-85928922D01*
X125868013Y-86079809D01*
X125926887Y-86221942D01*
X126012358Y-86349859D01*
X126121141Y-86458642D01*
X126249058Y-86544113D01*
X126391191Y-86602987D01*
X126542078Y-86633000D01*
X126695922Y-86633000D01*
X126846809Y-86602987D01*
X126988942Y-86544113D01*
X127116859Y-86458642D01*
X127190500Y-86385001D01*
X127264141Y-86458642D01*
X127392058Y-86544113D01*
X127534191Y-86602987D01*
X127685078Y-86633000D01*
X127838922Y-86633000D01*
X127989809Y-86602987D01*
X128131942Y-86544113D01*
X128259859Y-86458642D01*
X128333500Y-86385001D01*
X128407141Y-86458642D01*
X128535058Y-86544113D01*
X128677191Y-86602987D01*
X128828078Y-86633000D01*
X128981922Y-86633000D01*
X129132809Y-86602987D01*
X129274942Y-86544113D01*
X129402859Y-86458642D01*
X129511642Y-86349859D01*
X129597113Y-86221942D01*
X129624395Y-86156078D01*
X131680000Y-86156078D01*
X131680000Y-86309922D01*
X131710013Y-86460809D01*
X131768887Y-86602942D01*
X131854358Y-86730859D01*
X131963141Y-86839642D01*
X132091058Y-86925113D01*
X132233191Y-86983987D01*
X132384078Y-87014000D01*
X132537922Y-87014000D01*
X132688809Y-86983987D01*
X132830942Y-86925113D01*
X132958859Y-86839642D01*
X133067642Y-86730859D01*
X133153113Y-86602942D01*
X133211987Y-86460809D01*
X133242000Y-86309922D01*
X133242000Y-86156078D01*
X133966000Y-86156078D01*
X133966000Y-86309922D01*
X133996013Y-86460809D01*
X134054887Y-86602942D01*
X134140358Y-86730859D01*
X134249141Y-86839642D01*
X134377058Y-86925113D01*
X134519191Y-86983987D01*
X134670078Y-87014000D01*
X134823922Y-87014000D01*
X134974809Y-86983987D01*
X135116942Y-86925113D01*
X135244859Y-86839642D01*
X135293411Y-86791090D01*
X138426997Y-86791090D01*
X138426997Y-86944934D01*
X138457010Y-87095821D01*
X138515884Y-87237954D01*
X138601355Y-87365871D01*
X138710138Y-87474654D01*
X138838055Y-87560125D01*
X138980188Y-87618999D01*
X139131075Y-87649012D01*
X139284919Y-87649012D01*
X139435806Y-87618999D01*
X139577939Y-87560125D01*
X139705856Y-87474654D01*
X139751274Y-87429237D01*
X139811102Y-87489065D01*
X139939019Y-87574536D01*
X140081152Y-87633410D01*
X140232039Y-87663423D01*
X140385883Y-87663423D01*
X140536770Y-87633410D01*
X140678903Y-87574536D01*
X140806820Y-87489065D01*
X140915603Y-87380282D01*
X141001074Y-87252365D01*
X141059948Y-87110232D01*
X141089961Y-86959345D01*
X141089961Y-86805501D01*
X141059948Y-86654614D01*
X141001074Y-86512481D01*
X140915603Y-86384564D01*
X140806820Y-86275781D01*
X140678903Y-86190310D01*
X140536770Y-86131436D01*
X140385883Y-86101423D01*
X140232039Y-86101423D01*
X140081152Y-86131436D01*
X139939019Y-86190310D01*
X139811102Y-86275781D01*
X139765685Y-86321199D01*
X139705856Y-86261370D01*
X139577939Y-86175899D01*
X139435806Y-86117025D01*
X139284919Y-86087012D01*
X139131075Y-86087012D01*
X138980188Y-86117025D01*
X138838055Y-86175899D01*
X138710138Y-86261370D01*
X138601355Y-86370153D01*
X138515884Y-86498070D01*
X138457010Y-86640203D01*
X138426997Y-86791090D01*
X135293411Y-86791090D01*
X135353642Y-86730859D01*
X135439113Y-86602942D01*
X135497987Y-86460809D01*
X135528000Y-86309922D01*
X135528000Y-86156078D01*
X135497987Y-86005191D01*
X135439113Y-85863058D01*
X135353642Y-85735141D01*
X135244859Y-85626358D01*
X135116942Y-85540887D01*
X134974809Y-85482013D01*
X134823922Y-85452000D01*
X134670078Y-85452000D01*
X134519191Y-85482013D01*
X134377058Y-85540887D01*
X134249141Y-85626358D01*
X134140358Y-85735141D01*
X134054887Y-85863058D01*
X133996013Y-86005191D01*
X133966000Y-86156078D01*
X133242000Y-86156078D01*
X133211987Y-86005191D01*
X133153113Y-85863058D01*
X133067642Y-85735141D01*
X132958859Y-85626358D01*
X132830942Y-85540887D01*
X132688809Y-85482013D01*
X132537922Y-85452000D01*
X132384078Y-85452000D01*
X132233191Y-85482013D01*
X132091058Y-85540887D01*
X131963141Y-85626358D01*
X131854358Y-85735141D01*
X131768887Y-85863058D01*
X131710013Y-86005191D01*
X131680000Y-86156078D01*
X129624395Y-86156078D01*
X129655987Y-86079809D01*
X129686000Y-85928922D01*
X129686000Y-85775078D01*
X129655987Y-85624191D01*
X129597113Y-85482058D01*
X129511642Y-85354141D01*
X129402859Y-85245358D01*
X129274942Y-85159887D01*
X129132809Y-85101013D01*
X128981922Y-85071000D01*
X128828078Y-85071000D01*
X128677191Y-85101013D01*
X128535058Y-85159887D01*
X128407141Y-85245358D01*
X128333500Y-85318999D01*
X128259859Y-85245358D01*
X128131942Y-85159887D01*
X127989809Y-85101013D01*
X127838922Y-85071000D01*
X127685078Y-85071000D01*
X127534191Y-85101013D01*
X127392058Y-85159887D01*
X127264141Y-85245358D01*
X127190500Y-85318999D01*
X127116859Y-85245358D01*
X126988942Y-85159887D01*
X126846809Y-85101013D01*
X126695922Y-85071000D01*
X126542078Y-85071000D01*
X126391191Y-85101013D01*
X126249058Y-85159887D01*
X126121141Y-85245358D01*
X126012358Y-85354141D01*
X125926887Y-85482058D01*
X125868013Y-85624191D01*
X125838000Y-85775078D01*
X122326000Y-85775078D01*
X122326000Y-83108078D01*
X128124000Y-83108078D01*
X128124000Y-83261922D01*
X128154013Y-83412809D01*
X128212887Y-83554942D01*
X128298358Y-83682859D01*
X128407141Y-83791642D01*
X128535058Y-83877113D01*
X128677191Y-83935987D01*
X128828078Y-83966000D01*
X128981922Y-83966000D01*
X129132809Y-83935987D01*
X129274942Y-83877113D01*
X129402859Y-83791642D01*
X129511642Y-83682859D01*
X129597113Y-83554942D01*
X129655987Y-83412809D01*
X129686000Y-83261922D01*
X129686000Y-83108078D01*
X129655987Y-82957191D01*
X129597113Y-82815058D01*
X129511642Y-82687141D01*
X129424579Y-82600078D01*
X131680000Y-82600078D01*
X131680000Y-82753922D01*
X131710013Y-82904809D01*
X131768887Y-83046942D01*
X131854358Y-83174859D01*
X131963141Y-83283642D01*
X132091058Y-83369113D01*
X132233191Y-83427987D01*
X132384078Y-83458000D01*
X132537922Y-83458000D01*
X132688809Y-83427987D01*
X132830942Y-83369113D01*
X132958859Y-83283642D01*
X133067642Y-83174859D01*
X133153113Y-83046942D01*
X133211987Y-82904809D01*
X133242000Y-82753922D01*
X133242000Y-82600078D01*
X133216739Y-82473078D01*
X138411000Y-82473078D01*
X138411000Y-82626922D01*
X138441013Y-82777809D01*
X138499887Y-82919942D01*
X138585358Y-83047859D01*
X138694141Y-83156642D01*
X138822058Y-83242113D01*
X138964191Y-83300987D01*
X139115078Y-83331000D01*
X139268922Y-83331000D01*
X139419809Y-83300987D01*
X139561942Y-83242113D01*
X139689859Y-83156642D01*
X139798642Y-83047859D01*
X139827000Y-83005418D01*
X139855358Y-83047859D01*
X139964141Y-83156642D01*
X140092058Y-83242113D01*
X140234191Y-83300987D01*
X140385078Y-83331000D01*
X140538922Y-83331000D01*
X140689809Y-83300987D01*
X140831942Y-83242113D01*
X140959859Y-83156642D01*
X141068642Y-83047859D01*
X141154113Y-82919942D01*
X141212987Y-82777809D01*
X141243000Y-82626922D01*
X141243000Y-82473078D01*
X141212987Y-82322191D01*
X141154113Y-82180058D01*
X141068642Y-82052141D01*
X140959859Y-81943358D01*
X140831942Y-81857887D01*
X140689809Y-81799013D01*
X140538922Y-81769000D01*
X140385078Y-81769000D01*
X140234191Y-81799013D01*
X140092058Y-81857887D01*
X139964141Y-81943358D01*
X139855358Y-82052141D01*
X139827000Y-82094582D01*
X139798642Y-82052141D01*
X139689859Y-81943358D01*
X139561942Y-81857887D01*
X139419809Y-81799013D01*
X139268922Y-81769000D01*
X139115078Y-81769000D01*
X138964191Y-81799013D01*
X138822058Y-81857887D01*
X138694141Y-81943358D01*
X138585358Y-82052141D01*
X138499887Y-82180058D01*
X138441013Y-82322191D01*
X138411000Y-82473078D01*
X133216739Y-82473078D01*
X133211987Y-82449191D01*
X133153113Y-82307058D01*
X133067642Y-82179141D01*
X132958859Y-82070358D01*
X132830942Y-81984887D01*
X132688809Y-81926013D01*
X132537922Y-81896000D01*
X132384078Y-81896000D01*
X132233191Y-81926013D01*
X132091058Y-81984887D01*
X131963141Y-82070358D01*
X131854358Y-82179141D01*
X131768887Y-82307058D01*
X131710013Y-82449191D01*
X131680000Y-82600078D01*
X129424579Y-82600078D01*
X129402859Y-82578358D01*
X129274942Y-82492887D01*
X129132809Y-82434013D01*
X128981922Y-82404000D01*
X128828078Y-82404000D01*
X128677191Y-82434013D01*
X128535058Y-82492887D01*
X128407141Y-82578358D01*
X128298358Y-82687141D01*
X128212887Y-82815058D01*
X128154013Y-82957191D01*
X128124000Y-83108078D01*
X122326000Y-83108078D01*
X122326000Y-80568078D01*
X131934012Y-80568078D01*
X131934012Y-80721922D01*
X131964025Y-80872809D01*
X132022899Y-81014942D01*
X132108370Y-81142859D01*
X132217153Y-81251642D01*
X132345070Y-81337113D01*
X132487203Y-81395987D01*
X132638090Y-81426000D01*
X132791934Y-81426000D01*
X132942821Y-81395987D01*
X133084954Y-81337113D01*
X133212871Y-81251642D01*
X133223006Y-81241507D01*
X133237794Y-81256295D01*
X133365711Y-81341766D01*
X133507844Y-81400640D01*
X133658731Y-81430653D01*
X133812575Y-81430653D01*
X133963462Y-81400640D01*
X134105595Y-81341766D01*
X134233512Y-81256295D01*
X134243653Y-81246154D01*
X134249141Y-81251642D01*
X134377058Y-81337113D01*
X134519191Y-81395987D01*
X134670078Y-81426000D01*
X134823922Y-81426000D01*
X134974809Y-81395987D01*
X135116942Y-81337113D01*
X135244859Y-81251642D01*
X135353642Y-81142859D01*
X135439113Y-81014942D01*
X135497987Y-80872809D01*
X135528000Y-80721922D01*
X135528000Y-80568078D01*
X137649000Y-80568078D01*
X137649000Y-80721922D01*
X137679013Y-80872809D01*
X137737887Y-81014942D01*
X137823358Y-81142859D01*
X137932141Y-81251642D01*
X138060058Y-81337113D01*
X138202191Y-81395987D01*
X138353078Y-81426000D01*
X138506922Y-81426000D01*
X138657809Y-81395987D01*
X138799942Y-81337113D01*
X138927859Y-81251642D01*
X139036642Y-81142859D01*
X139122113Y-81014942D01*
X139180987Y-80872809D01*
X139211000Y-80721922D01*
X139211000Y-80568078D01*
X139180987Y-80417191D01*
X139122113Y-80275058D01*
X139036642Y-80147141D01*
X138927859Y-80038358D01*
X138799942Y-79952887D01*
X138657809Y-79894013D01*
X138506922Y-79864000D01*
X138353078Y-79864000D01*
X138202191Y-79894013D01*
X138060058Y-79952887D01*
X137932141Y-80038358D01*
X137823358Y-80147141D01*
X137737887Y-80275058D01*
X137679013Y-80417191D01*
X137649000Y-80568078D01*
X135528000Y-80568078D01*
X135497987Y-80417191D01*
X135439113Y-80275058D01*
X135353642Y-80147141D01*
X135244859Y-80038358D01*
X135116942Y-79952887D01*
X134974809Y-79894013D01*
X134823922Y-79864000D01*
X134670078Y-79864000D01*
X134519191Y-79894013D01*
X134377058Y-79952887D01*
X134249141Y-80038358D01*
X134239000Y-80048499D01*
X134233512Y-80043011D01*
X134105595Y-79957540D01*
X133963462Y-79898666D01*
X133812575Y-79868653D01*
X133658731Y-79868653D01*
X133507844Y-79898666D01*
X133365711Y-79957540D01*
X133237794Y-80043011D01*
X133227659Y-80053146D01*
X133212871Y-80038358D01*
X133084954Y-79952887D01*
X132942821Y-79894013D01*
X132791934Y-79864000D01*
X132638090Y-79864000D01*
X132487203Y-79894013D01*
X132345070Y-79952887D01*
X132217153Y-80038358D01*
X132108370Y-80147141D01*
X132022899Y-80275058D01*
X131964025Y-80417191D01*
X131934012Y-80568078D01*
X122326000Y-80568078D01*
X122326000Y-78755000D01*
X147172560Y-78755000D01*
X147198259Y-79015922D01*
X147274367Y-79266816D01*
X147397959Y-79498042D01*
X147564287Y-79700713D01*
X147766958Y-79867041D01*
X147998184Y-79990633D01*
X148249078Y-80066741D01*
X148444615Y-80086000D01*
X148806499Y-80086000D01*
X148745358Y-80147141D01*
X148659887Y-80275058D01*
X148601013Y-80417191D01*
X148571000Y-80568078D01*
X148571000Y-80721922D01*
X148601013Y-80872809D01*
X148659887Y-81014942D01*
X148745358Y-81142859D01*
X148854141Y-81251642D01*
X148932185Y-81303789D01*
X148869006Y-81329958D01*
X148716522Y-81431845D01*
X148586845Y-81561522D01*
X148484958Y-81714006D01*
X148414778Y-81883437D01*
X148379000Y-82063304D01*
X148379000Y-82246696D01*
X148414778Y-82426563D01*
X148484958Y-82595994D01*
X148586845Y-82748478D01*
X148716522Y-82878155D01*
X148869006Y-82980042D01*
X149038437Y-83050222D01*
X149065049Y-83055515D01*
X148997191Y-83069013D01*
X148855058Y-83127887D01*
X148727141Y-83213358D01*
X148618358Y-83322141D01*
X148532887Y-83450058D01*
X148474013Y-83592191D01*
X148456035Y-83682576D01*
X148412922Y-83674000D01*
X148259078Y-83674000D01*
X148108191Y-83704013D01*
X147966058Y-83762887D01*
X147838141Y-83848358D01*
X147729358Y-83957141D01*
X147643887Y-84085058D01*
X147585013Y-84227191D01*
X147555000Y-84378078D01*
X147555000Y-84531922D01*
X147585013Y-84682809D01*
X147643887Y-84824942D01*
X147729358Y-84952859D01*
X147838141Y-85061642D01*
X147966058Y-85147113D01*
X148108191Y-85205987D01*
X148259078Y-85236000D01*
X148412922Y-85236000D01*
X148456035Y-85227424D01*
X148474013Y-85317809D01*
X148532887Y-85459942D01*
X148618358Y-85587859D01*
X148727141Y-85696642D01*
X148855058Y-85782113D01*
X148997191Y-85840987D01*
X149065049Y-85854485D01*
X149038437Y-85859778D01*
X148869006Y-85929958D01*
X148716522Y-86031845D01*
X148586845Y-86161522D01*
X148484958Y-86314006D01*
X148414778Y-86483437D01*
X148379000Y-86663304D01*
X148379000Y-86846696D01*
X148414778Y-87026563D01*
X148484958Y-87195994D01*
X148586845Y-87348478D01*
X148716522Y-87478155D01*
X148869006Y-87580042D01*
X149038437Y-87650222D01*
X149218304Y-87686000D01*
X149401696Y-87686000D01*
X149581563Y-87650222D01*
X149750994Y-87580042D01*
X149903478Y-87478155D01*
X150033155Y-87348478D01*
X150135042Y-87195994D01*
X150205222Y-87026563D01*
X150241000Y-86846696D01*
X150241000Y-86663304D01*
X150205222Y-86483437D01*
X150135042Y-86314006D01*
X150033155Y-86161522D01*
X149903478Y-86031845D01*
X149750994Y-85929958D01*
X149581563Y-85859778D01*
X149463932Y-85836380D01*
X149594942Y-85782113D01*
X149722859Y-85696642D01*
X149831642Y-85587859D01*
X149917113Y-85459942D01*
X149975987Y-85317809D01*
X150006000Y-85166922D01*
X150006000Y-85013078D01*
X149975987Y-84862191D01*
X149917113Y-84720058D01*
X149831642Y-84592141D01*
X149722859Y-84483358D01*
X149680418Y-84455000D01*
X149722859Y-84426642D01*
X149831642Y-84317859D01*
X149917113Y-84189942D01*
X149975987Y-84047809D01*
X150006000Y-83896922D01*
X150006000Y-83743078D01*
X149975987Y-83592191D01*
X149917113Y-83450058D01*
X149831642Y-83322141D01*
X149722859Y-83213358D01*
X149594942Y-83127887D01*
X149463932Y-83073620D01*
X149581563Y-83050222D01*
X149750994Y-82980042D01*
X149903478Y-82878155D01*
X150033155Y-82748478D01*
X150135042Y-82595994D01*
X150205222Y-82426563D01*
X150241000Y-82246696D01*
X150241000Y-82063304D01*
X150205222Y-81883437D01*
X150135042Y-81714006D01*
X150033155Y-81561522D01*
X149903478Y-81431845D01*
X149750994Y-81329958D01*
X149739670Y-81325268D01*
X149849859Y-81251642D01*
X149958642Y-81142859D01*
X150044113Y-81014942D01*
X150102987Y-80872809D01*
X150133000Y-80721922D01*
X150133000Y-80568078D01*
X150102987Y-80417191D01*
X150044113Y-80275058D01*
X149958642Y-80147141D01*
X149897501Y-80086000D01*
X150175385Y-80086000D01*
X150370922Y-80066741D01*
X150621816Y-79990633D01*
X150853042Y-79867041D01*
X151055713Y-79700713D01*
X151222041Y-79498042D01*
X151345633Y-79266816D01*
X151421741Y-79015922D01*
X151447440Y-78755000D01*
X151421741Y-78494078D01*
X151345633Y-78243184D01*
X151222041Y-78011958D01*
X151055713Y-77809287D01*
X150853042Y-77642959D01*
X150621816Y-77519367D01*
X150370922Y-77443259D01*
X150175385Y-77424000D01*
X148444615Y-77424000D01*
X148249078Y-77443259D01*
X147998184Y-77519367D01*
X147766958Y-77642959D01*
X147564287Y-77809287D01*
X147397959Y-78011958D01*
X147274367Y-78243184D01*
X147198259Y-78494078D01*
X147172560Y-78755000D01*
X122326000Y-78755000D01*
X122326000Y-77774078D01*
X127743000Y-77774078D01*
X127743000Y-77927922D01*
X127773013Y-78078809D01*
X127831887Y-78220942D01*
X127917358Y-78348859D01*
X128026141Y-78457642D01*
X128154058Y-78543113D01*
X128296191Y-78601987D01*
X128447078Y-78632000D01*
X128600922Y-78632000D01*
X128751809Y-78601987D01*
X128893942Y-78543113D01*
X129021859Y-78457642D01*
X129130642Y-78348859D01*
X129216113Y-78220942D01*
X129274987Y-78078809D01*
X129305000Y-77927922D01*
X129305000Y-77774078D01*
X129274987Y-77623191D01*
X129216113Y-77481058D01*
X129130642Y-77353141D01*
X129021859Y-77244358D01*
X128893942Y-77158887D01*
X128751809Y-77100013D01*
X128600922Y-77070000D01*
X128447078Y-77070000D01*
X128296191Y-77100013D01*
X128154058Y-77158887D01*
X128026141Y-77244358D01*
X127917358Y-77353141D01*
X127831887Y-77481058D01*
X127773013Y-77623191D01*
X127743000Y-77774078D01*
X122326000Y-77774078D01*
X122326000Y-75971000D01*
X129532424Y-75971000D01*
X129424058Y-76015887D01*
M02*
